<svg width="1104" height="300" viewBox="0 0 1104 300" fill="none" xmlns="http://www.w3.org/2000/svg">
<path fill-rule="evenodd" clip-rule="evenodd" d="M683.938 57H0V243H683.938V57ZM129.842 154.579C129.842 196.265 109.695 222.33 76.4779 222.33C43.2606 222.33 23.1127 196.265 23.1127 154.579V154.397C23.1127 112.71 43.2606 86.7358 76.4779 86.7358C109.695 86.7358 129.842 112.71 129.842 154.397V154.579ZM50.7934 154.579C50.7934 183.368 60.1414 200.352 76.4779 200.352C92.814 200.352 102.162 183.368 102.162 154.579V154.397C102.162 125.607 92.814 108.714 76.4779 108.714C60.1414 108.714 50.7934 125.607 50.7934 154.397V154.579ZM251.819 154.579C251.819 196.265 231.672 222.33 198.454 222.33C165.237 222.33 145.09 196.265 145.09 154.579V154.397C145.09 112.71 165.237 86.7358 198.454 86.7358C231.672 86.7358 251.819 112.71 251.819 154.397V154.579ZM172.77 154.579C172.77 183.368 182.118 200.352 198.454 200.352C214.791 200.352 224.139 183.368 224.139 154.579V154.397C224.139 125.607 214.791 108.714 198.454 108.714C182.118 108.714 172.77 125.607 172.77 154.397V154.579ZM297.742 220.06H270.334V89.0063H356.099V111.621H297.742V146.768H351.017V168.474H297.742V220.06ZM399.753 220.06H372.344V89.0063H458.109V111.621H399.753V146.768H453.027V168.474H399.753V220.06ZM501.763 220.06H474.355V89.0063H560.12V111.621H501.763V146.768H555.037V168.474H501.763V220.06ZM603.774 220.06H576.365V89.0063H662.129V111.621H603.774V146.768H657.049V168.474H603.774V220.06Z" fill="#00FFFF"/>
</svg>
