<svg width="1104" height="300" viewBox="0 0 1104 300" fill="none" xmlns="http://www.w3.org/2000/svg">
<path d="M1103.9 0H0V300H1103.9V0Z" fill="#00FFFF"/>
<path d="M123.438 266.662C177.051 266.662 209.57 224.621 209.57 157.385V157.092C209.57 89.8555 177.051 47.9609 123.438 47.9609C69.8242 47.9609 37.3047 89.8555 37.3047 157.092V157.385C37.3047 224.621 69.8242 266.662 123.438 266.662ZM123.438 231.213C97.0703 231.213 81.9824 203.82 81.9824 157.385V157.092C81.9824 110.656 97.0703 83.4102 123.438 83.4102C149.805 83.4102 164.893 110.656 164.893 157.092V157.385C164.893 203.82 149.805 231.213 123.438 231.213ZM320.312 266.662C373.926 266.662 406.445 224.621 406.445 157.385V157.092C406.445 89.8555 373.926 47.9609 320.312 47.9609C266.699 47.9609 234.18 89.8555 234.18 157.092V157.385C234.18 224.621 266.699 266.662 320.312 266.662ZM320.312 231.213C293.945 231.213 278.857 203.82 278.857 157.385V157.092C278.857 110.656 293.945 83.4102 320.312 83.4102C346.68 83.4102 361.768 110.656 361.768 157.092V157.385C361.768 203.82 346.68 231.213 320.312 231.213ZM436.328 263H480.566V179.797H566.553V144.787H480.566V88.0977H574.756V51.623H436.328V263ZM600.977 263H645.215V179.797H731.201V144.787H645.215V88.0977H739.404V51.623H600.977V263ZM765.625 263H809.863V179.797H895.85V144.787H809.863V88.0977H904.053V51.623H765.625V263ZM930.273 263H974.512V179.797H1060.5V144.787H974.512V88.0977H1068.7V51.623H930.273V263Z" fill="white"/>
</svg>
