<svg width="1104" height="300" viewBox="0 0 1104 300" fill="none" xmlns="http://www.w3.org/2000/svg">
<path fill-rule="evenodd" clip-rule="evenodd" d="M1103.9 0H0V300H1103.9V0ZM209.57 157.385C209.57 224.621 177.051 266.662 123.438 266.662C69.8242 266.662 37.3047 224.621 37.3047 157.385V157.092C37.3047 89.8555 69.8242 47.9609 123.438 47.9609C177.051 47.9609 209.57 89.8555 209.57 157.092V157.385ZM81.9824 157.385C81.9824 203.82 97.0703 231.213 123.438 231.213C149.805 231.213 164.893 203.82 164.893 157.385V157.092C164.893 110.656 149.805 83.4102 123.438 83.4102C97.0703 83.4102 81.9824 110.656 81.9824 157.092V157.385ZM406.445 157.385C406.445 224.621 373.926 266.662 320.312 266.662C266.699 266.662 234.18 224.621 234.18 157.385V157.092C234.18 89.8555 266.699 47.9609 320.312 47.9609C373.926 47.9609 406.445 89.8555 406.445 157.092V157.385ZM278.857 157.385C278.857 203.82 293.945 231.213 320.312 231.213C346.68 231.213 361.768 203.82 361.768 157.385V157.092C361.768 110.656 346.68 83.4102 320.312 83.4102C293.945 83.4102 278.857 110.656 278.857 157.092V157.385ZM480.566 263H436.328V51.623H574.756V88.0977H480.566V144.787H566.553V179.797H480.566V263ZM645.215 263H600.977V51.623H739.404V88.0977H645.215V144.787H731.201V179.797H645.215V263ZM809.863 263H765.625V51.623H904.053V88.0977H809.863V144.787H895.85V179.797H809.863V263ZM974.512 263H930.273V51.623H1068.7V88.0977H974.512V144.787H1060.5V179.797H974.512V263Z" fill="#00FFFF"/>
</svg>
