<svg width="180" height="180" viewBox="0 0 180 180" fill="none" xmlns="http://www.w3.org/2000/svg">
<rect width="180" height="180" fill="#00FFFF"/>
<path d="M32.8125 77.2207C50.6836 77.2207 61.5234 63.207 61.5234 40.7949V40.6973C61.5234 18.2852 50.6836 4.32031 32.8125 4.32031C14.9414 4.32031 4.10156 18.2852 4.10156 40.6973V40.7949C4.10156 63.207 14.9414 77.2207 32.8125 77.2207ZM32.8125 65.4043C24.0234 65.4043 18.9941 56.2734 18.9941 40.7949V40.6973C18.9941 25.2188 24.0234 16.1367 32.8125 16.1367C41.6016 16.1367 46.6309 25.2188 46.6309 40.6973V40.7949C46.6309 56.2734 41.6016 65.4043 32.8125 65.4043ZM94.4375 77.2207C112.309 77.2207 123.148 63.207 123.148 40.7949V40.6973C123.148 18.2852 112.309 4.32031 94.4375 4.32031C76.5664 4.32031 65.7266 18.2852 65.7266 40.6973V40.7949C65.7266 63.207 76.5664 77.2207 94.4375 77.2207ZM94.4375 65.4043C85.6484 65.4043 80.6191 56.2734 80.6191 40.7949V40.6973C80.6191 25.2188 85.6484 16.1367 94.4375 16.1367C103.227 16.1367 108.256 25.2188 108.256 40.6973V40.7949C108.256 56.2734 103.227 65.4043 94.4375 65.4043ZM129.109 76H143.855V48.2656H172.518V36.5957H143.855V17.6992H175.252V5.54102H129.109V76ZM5.85938 156H20.6055V128.266H49.2676V116.596H20.6055V97.6992H52.002V85.541H5.85938V156ZM56.7422 156H71.4883V128.266H100.15V116.596H71.4883V97.6992H102.885V85.541H56.7422V156ZM107.625 156H122.371V128.266H151.033V116.596H122.371V97.6992H153.768V85.541H107.625V156Z" fill="white"/>
</svg>
