<svg width="180" height="180" viewBox="0 0 180 180" fill="none" xmlns="http://www.w3.org/2000/svg">
<path fill-rule="evenodd" clip-rule="evenodd" d="M180 0H0V180H180V0ZM61.5234 40.7949C61.5234 63.207 50.6836 77.2207 32.8125 77.2207C14.9414 77.2207 4.10156 63.207 4.10156 40.7949V40.6973C4.10156 18.2852 14.9414 4.32031 32.8125 4.32031C50.6836 4.32031 61.5234 18.2852 61.5234 40.6973V40.7949ZM18.9941 40.7949C18.9941 56.2734 24.0234 65.4043 32.8125 65.4043C41.6016 65.4043 46.6309 56.2734 46.6309 40.7949V40.6973C46.6309 25.2188 41.6016 16.1367 32.8125 16.1367C24.0234 16.1367 18.9941 25.2188 18.9941 40.6973V40.7949ZM123.148 40.7949C123.148 63.207 112.309 77.2207 94.4375 77.2207C76.5664 77.2207 65.7266 63.207 65.7266 40.7949V40.6973C65.7266 18.2852 76.5664 4.32031 94.4375 4.32031C112.309 4.32031 123.148 18.2852 123.148 40.6973V40.7949ZM80.6191 40.7949C80.6191 56.2734 85.6484 65.4043 94.4375 65.4043C103.227 65.4043 108.256 56.2734 108.256 40.7949V40.6973C108.256 25.2188 103.227 16.1367 94.4375 16.1367C85.6484 16.1367 80.6191 25.2188 80.6191 40.6973V40.7949ZM143.855 76H129.109V5.54102H175.252V17.6992H143.855V36.5957H172.518V48.2656H143.855V76ZM20.6055 156H5.85938V85.541H52.002V97.6992H20.6055V116.596H49.2676V128.266H20.6055V156ZM71.4883 156H56.7422V85.541H102.885V97.6992H71.4883V116.596H100.15V128.266H71.4883V156ZM122.371 156H107.625V85.541H153.768V97.6992H122.371V116.596H151.033V128.266H122.371V156Z" fill="black"/>
</svg>
