<?xml version="1.0" standalone="no"?>
<!DOCTYPE svg PUBLIC "-//W3C//DTD SVG 20010904//EN"
 "http://www.w3.org/TR/2001/REC-SVG-20010904/DTD/svg10.dtd">
<svg version="1.0" xmlns="http://www.w3.org/2000/svg"
 width="160.000000pt" height="160.000000pt" viewBox="0 0 160.000000 160.000000"
 preserveAspectRatio="xMidYMid meet">
<metadata>
Created by potrace 1.14, written by Peter Selinger 2001-2017
</metadata>
<g transform="translate(0.000000,160.000000) scale(0.100000,-0.100000)"
fill="#000000" stroke="none">
<path d="M968 1300 c-51 -32 -55 -31 -37 2 13 24 4 20 -52 -24 -43 -33 -60
-37 -34 -8 30 33 -5 25 -43 -10 -39 -35 -47 -38 -32 -10 12 23 7 25 -23 8 -25
-13 -36 -23 -61 -58 l-18 -25 5 28 c5 32 -2 34 -37 6 -18 -14 -26 -16 -26 -7
0 7 -12 0 -25 -15 -23 -25 -30 -27 -26 -4 3 20 -22 3 -40 -28 -25 -41 -34 -45
-25 -10 10 40 -13 31 -53 -20 -21 -26 -23 -27 -18 -8 7 29 -9 39 -22 14 -6
-10 -18 -21 -26 -25 -9 -3 -13 -2 -10 4 11 18 -8 11 -32 -12 -20 -18 -23 -19
-23 -5 0 24 -15 21 -33 -5 l-15 -23 -20 25 -21 25 -2 -25 c-1 -14 -2 -34 -1
-45 0 -17 -3 -16 -22 8 -12 15 -24 27 -27 27 -3 0 -5 -19 -4 -43 1 -43 0 -43
-25 -30 -33 17 -39 -1 -11 -31 12 -12 21 -26 21 -30 0 -4 8 -20 18 -34 54 -77
20 -143 -101 -196 -50 -23 -57 -29 -57 -55 0 -51 57 -97 113 -92 4 1 29 -10
57 -24 27 -14 60 -25 72 -25 80 -1 358 -85 358 -108 0 -24 -33 -72 -50 -72
-40 0 -85 -68 -47 -71 74 -8 89 -4 122 28 19 18 42 46 52 63 16 27 21 29 53
24 41 -7 47 -12 52 -39 2 -12 -3 -21 -12 -21 -8 -1 -20 -2 -26 -3 -6 0 -16
-12 -22 -25 -15 -34 2 -46 65 -46 49 0 54 2 69 32 9 18 17 44 18 57 1 24 3 25
66 24 36 -1 79 -2 97 -2 26 -1 30 -4 26 -21 -3 -11 -8 -20 -12 -21 -3 0 -19
-2 -35 -3 -28 -2 -59 -31 -53 -51 2 -5 31 -11 66 -13 60 -3 63 -2 99 35 21 21
41 46 44 55 4 9 19 25 34 34 25 17 27 17 40 -1 24 -32 18 -55 -14 -55 -32 0
-52 -16 -52 -42 0 -15 9 -18 63 -18 80 0 100 17 102 90 1 27 4 53 8 57 4 3 7
1 7 -5 0 -7 7 -12 15 -12 10 0 15 11 16 33 0 17 3 26 6 20 2 -7 9 -13 15 -13
6 0 8 7 5 14 -4 11 -1 13 10 9 13 -5 15 -1 11 21 -7 33 7 44 18 13 6 -18 8
-14 11 21 4 36 7 42 19 31 15 -12 17 -4 17 73 0 35 2 37 23 32 l24 -6 -14 46
c-12 39 -12 46 0 46 8 0 14 -5 14 -11 0 -5 5 -7 11 -3 10 6 8 26 -7 76 -3 9 1
18 10 20 12 2 12 10 -5 46 -11 23 -23 42 -28 42 -5 0 -11 7 -15 15 -5 13 -2
14 15 4 30 -15 36 -3 12 24 -22 23 -42 74 -26 64 5 -3 15 -2 22 3 10 6 5 12
-19 25 -39 20 -85 62 -58 52 10 -3 20 -2 23 3 3 5 -18 23 -47 40 -29 16 -50
30 -45 31 4 1 12 2 17 3 6 0 11 6 13 11 1 6 -23 15 -53 21 l-55 11 30 14 30
13 -40 4 c-22 2 -44 10 -48 18 -5 9 -17 12 -33 8 -30 -8 -31 2 -1 27 l22 19
-35 -5 c-79 -12 -104 -15 -92 -9 6 3 12 12 12 21 0 10 -6 12 -22 7 -13 -4 -26
-11 -30 -17 -4 -7 -11 -7 -21 1 -11 10 -21 9 -43 -3 -35 -18 -53 -20 -36 -3
13 13 16 28 5 28 -5 0 -29 -14 -55 -30z"/>
</g>
</svg>
