<svg width="21903" height="15147" viewBox="0 0 21903 15147" fill="none" xmlns="http://www.w3.org/2000/svg">
<rect x="695" width="21208" height="15147" fill="#C4C4C4" fill-opacity="0.1"/>
<rect x="20085" y="2916" width="840" height="840" rx="30" fill="#C4C4C4" fill-opacity="0.1"/>
<rect x="20060" y="5272" width="840" height="840" rx="30" fill="#C4C4C4" fill-opacity="0.1"/>
<rect y="663" width="7127" height="13573" fill="#C4C4C4" fill-opacity="0.1"/>
<path d="M10783.5 7334.59C10783.5 7161.54 10652.6 7039 10487.7 7039C10324.4 7039 10191 7161.54 10191 7334.59C10191 7508.46 10324.4 7631 10487.7 7631C10651.8 7631 10783.5 7508.46 10783.5 7334.59ZM10310.3 7334.59C10310.3 7217.01 10382.4 7143.32 10487.7 7143.32C10592.1 7143.32 10664.2 7217.01 10664.2 7334.59C10664.2 7452.16 10592.1 7527.5 10487.7 7527.5C10382.4 7527.5 10310.3 7452.16 10310.3 7334.59Z" fill="white"/>
<path d="M10545.1 7668.96C10545.1 7637.5 10519.6 7612 10488.1 7612C10456.6 7612 10431.1 7637.5 10431.1 7668.96V8097.04C10431.1 8128.5 10456.6 8154 10488.1 8154C10519.6 8154 10545.1 8128.5 10545.1 8097.04V7668.96Z" fill="white"/>
<path d="M10488.6 8209L10433.1 8111H10544.1L10488.6 8209Z" fill="white"/>
<path d="M10552.1 6631.38C10552.1 6606.87 10525 6587 10491.6 6587C10458.2 6587 10431.1 6606.87 10431.1 6631.38V7039.63C10431.1 7064.13 10458.2 7084 10491.6 7084C10525 7084 10552.1 7064.13 10552.1 7039.63V6631.38Z" fill="white"/>
<path d="M3149 1772.82C3149 1695.65 3090.66 1641 3017.18 1641C2944.45 1641 2885 1695.65 2885 1772.82C2885 1850.35 2944.45 1905 3017.18 1905C3090.29 1905 3149 1850.35 3149 1772.82ZM2938.17 1772.82C2938.17 1720.38 2970.29 1687.52 3017.18 1687.52C3063.71 1687.52 3095.83 1720.38 3095.83 1772.82C3095.83 1825.25 3063.71 1858.85 3017.18 1858.85C2970.29 1858.85 2938.17 1825.25 2938.17 1772.82Z" fill="white"/>
<path d="M3043 1916.7C3043 1905.27 3031.58 1896 3017.5 1896C3003.42 1896 2992 1905.27 2992 1916.7V2072.3C2992 2083.73 3003.42 2093 3017.5 2093C3031.58 2093 3043 2083.73 3043 2072.3V1916.7Z" fill="white"/>
<path d="M3017.5 2113L2993 2077H3042L3017.5 2113Z" fill="white"/>
<path d="M3046 1527.12C3046 1519.88 3033.91 1514 3019 1514C3004.09 1514 2992 1519.88 2992 1527.12V1647.88C2992 1655.12 3004.09 1661 3019 1661C3033.91 1661 3046 1655.12 3046 1647.88V1527.12Z" fill="white"/>
<path d="M1645.62 3973V3691.16H1587.42L1501.09 3906.2H1499.53L1413.2 3691.16H1354.8V3973H1400.31V3773H1401.68L1483.12 3973H1517.5L1598.95 3773H1600.31V3973H1645.62ZM1827.66 3911.09C1822.38 3928.27 1805.2 3939.6 1782.54 3939.6C1750.7 3939.6 1730.39 3917.34 1730.39 3884.13V3881.2H1875.12V3865.38C1875.12 3802.49 1838.4 3761.67 1779.61 3761.67C1719.84 3761.67 1681.95 3804.84 1681.95 3870.27C1681.95 3936.28 1719.45 3977.1 1781.56 3977.1C1830.59 3977.1 1866.91 3950.15 1873.16 3911.09H1827.66ZM1779.8 3799.37C1807.73 3799.37 1826.48 3819.88 1827.46 3849.17H1730.78C1732.73 3820.27 1752.46 3799.37 1779.8 3799.37ZM1906.56 3973H1955.2V3853.08C1955.2 3823.39 1972.97 3803.27 2000.9 3803.27C2028.63 3803.27 2042.3 3819.68 2042.3 3848.98V3973H2090.94V3839.21C2090.94 3791.36 2064.96 3762.06 2019.26 3762.06C1987.42 3762.06 1965.35 3776.91 1954.22 3801.52H1953.24V3765.97H1906.56V3973ZM2313.59 3765.97H2264.96V3885.7C2264.96 3915.77 2247.58 3935.7 2219.45 3935.7C2192.11 3935.7 2177.66 3919.68 2177.66 3889.99V3765.97H2129.02V3899.76C2129.02 3947.61 2157.54 3976.71 2202.46 3976.71C2233.91 3976.71 2254.8 3962.26 2265.74 3937.06H2266.72V3973H2313.59V3765.97Z" fill="white"/>
<rect x="1330" y="4127" width="4313" height="26" fill="#C4C4C4"/>
<path d="M1477.97 9760C1538.12 9760 1574.65 9729.53 1574.65 9679.92C1574.65 9642.62 1547.89 9615.08 1509.61 9611.37V9609.8C1538.52 9605.12 1560.98 9578.75 1560.98 9548.48C1560.98 9505.7 1527.97 9478.16 1476.8 9478.16H1359.8V9760H1477.97ZM1410.2 9517.42H1464.1C1494.18 9517.42 1511.17 9531.29 1511.17 9555.9C1511.17 9582.07 1491.45 9596.91 1456.29 9596.91H1410.2V9517.42ZM1410.2 9720.74V9632.66H1464.3C1502.97 9632.66 1523.28 9647.7 1523.28 9676.41C1523.28 9705.31 1503.55 9720.74 1466.45 9720.74H1410.2ZM1789.3 9552.97H1740.66V9672.7C1740.66 9702.77 1723.28 9722.7 1695.16 9722.7C1667.81 9722.7 1653.36 9706.68 1653.36 9676.99V9552.97H1604.73V9686.76C1604.73 9734.61 1633.24 9763.71 1678.16 9763.71C1709.61 9763.71 1730.51 9749.26 1741.45 9724.06H1742.42V9760H1789.3V9552.97ZM1842.62 9504.53V9552.97H1812.93V9590.47H1842.62V9704.92C1842.62 9745.16 1860.2 9760.98 1904.92 9760.98C1915.27 9760.98 1924.84 9760.2 1930.12 9759.02V9721.91C1926.99 9722.5 1920.74 9722.89 1916.25 9722.89C1899.06 9722.89 1891.25 9715.08 1891.25 9698.09V9590.47H1930.31V9552.97H1891.25V9504.53H1842.62ZM1976.99 9504.53V9552.97H1947.3V9590.47H1976.99V9704.92C1976.99 9745.16 1994.57 9760.98 2039.3 9760.98C2049.65 9760.98 2059.22 9760.2 2064.49 9759.02V9721.91C2061.37 9722.5 2055.12 9722.89 2050.62 9722.89C2033.44 9722.89 2025.62 9715.08 2025.62 9698.09V9590.47H2064.69V9552.97H2025.62V9504.53H1976.99ZM2185.59 9764.1C2246.33 9764.1 2285.78 9723.67 2285.78 9656.48C2285.78 9589.49 2245.94 9548.67 2185.59 9548.67C2125.23 9548.67 2085.39 9589.69 2085.39 9656.48C2085.39 9723.67 2124.84 9764.1 2185.59 9764.1ZM2185.59 9725.62C2154.73 9725.62 2134.8 9700.62 2134.8 9656.48C2134.8 9612.54 2154.92 9587.34 2185.59 9587.34C2216.45 9587.34 2236.37 9612.54 2236.37 9656.48C2236.37 9700.62 2216.45 9725.62 2185.59 9725.62ZM2317.03 9760H2365.66V9640.08C2365.66 9610.39 2383.44 9590.27 2411.37 9590.27C2439.1 9590.27 2452.77 9606.68 2452.77 9635.98V9760H2501.41V9626.21C2501.41 9578.36 2475.43 9549.06 2429.73 9549.06C2397.89 9549.06 2375.82 9563.91 2364.69 9588.52H2363.71V9552.97H2317.03V9760Z" fill="white"/>
<rect x="1335" y="9914" width="4313" height="26" fill="#C4C4C4"/>
<path d="M1434.5 4899.5V4798H1490C1529.5 4798 1547 4817 1547 4849C1547 4880 1529.5 4899.5 1490 4899.5H1434.5ZM1619 4849C1619 4788.5 1577 4741 1493 4741H1364.5V5090H1434.5V4956H1493C1583 4956 1619 4902 1619 4849ZM1683.7 5090H1753.7V4720H1683.7V5090ZM1819.86 4950.5C1819.86 5037 1875.86 5094.5 1945.86 5094.5C1989.86 5094.5 2021.36 5073.5 2037.86 5049.5V5090H2108.36V4813H2037.86V4852.5C2021.36 4829.5 1990.86 4808.5 1946.36 4808.5C1875.86 4808.5 1819.86 4864 1819.86 4950.5ZM2037.86 4951.5C2037.86 5004 2002.86 5033 1964.36 5033C1926.86 5033 1891.36 5003 1891.36 4950.5C1891.36 4898 1926.86 4870 1964.36 4870C2002.86 4870 2037.86 4899 2037.86 4951.5ZM2309.73 5006.5L2238.23 4813H2159.73L2270.73 5083L2210.73 5221H2285.23L2456.73 4813H2382.23L2309.73 5006.5Z" fill="white"/>
<path d="M1642.5 5988H1597L1414 5710.5V5988H1368.5V5639H1414L1597 5916V5639H1642.5V5988ZM1985.06 5840.5C1985.06 5849.17 1984.56 5858.33 1983.56 5868H1764.56C1766.23 5895 1775.4 5916.17 1792.06 5931.5C1809.06 5946.5 1829.56 5954 1853.56 5954C1873.23 5954 1889.56 5949.5 1902.56 5940.5C1915.9 5931.17 1925.23 5918.83 1930.56 5903.5H1979.56C1972.23 5929.83 1957.56 5951.33 1935.56 5968C1913.56 5984.33 1886.23 5992.5 1853.56 5992.5C1827.56 5992.5 1804.23 5986.67 1783.56 5975C1763.23 5963.33 1747.23 5946.83 1735.56 5925.5C1723.9 5903.83 1718.06 5878.83 1718.06 5850.5C1718.06 5822.17 1723.73 5797.33 1735.06 5776C1746.4 5754.67 1762.23 5738.33 1782.56 5727C1803.23 5715.33 1826.9 5709.5 1853.56 5709.5C1879.56 5709.5 1902.56 5715.17 1922.56 5726.5C1942.56 5737.83 1957.9 5753.5 1968.56 5773.5C1979.56 5793.17 1985.06 5815.5 1985.06 5840.5ZM1938.06 5831C1938.06 5813.67 1934.23 5798.83 1926.56 5786.5C1918.9 5773.83 1908.4 5764.33 1895.06 5758C1882.06 5751.33 1867.56 5748 1851.56 5748C1828.56 5748 1808.9 5755.33 1792.56 5770C1776.56 5784.67 1767.4 5805 1765.06 5831H1938.06ZM2425.12 5714L2339.62 5988H2292.62L2226.62 5770.5L2160.62 5988H2113.62L2027.62 5714H2074.12L2137.12 5944L2205.12 5714H2251.62L2318.12 5944.5L2380.12 5714H2425.12ZM2582.28 5992.5C2561.28 5992.5 2542.44 5989 2525.78 5982C2509.11 5974.67 2495.94 5964.67 2486.28 5952C2476.61 5939 2471.28 5924.17 2470.28 5907.5H2517.28C2518.61 5921.17 2524.94 5932.33 2536.28 5941C2547.94 5949.67 2563.11 5954 2581.78 5954C2599.11 5954 2612.78 5950.17 2622.78 5942.5C2632.78 5934.83 2637.78 5925.17 2637.78 5913.5C2637.78 5901.5 2632.44 5892.67 2621.78 5887C2611.11 5881 2594.61 5875.17 2572.28 5869.5C2551.94 5864.17 2535.28 5858.83 2522.28 5853.5C2509.61 5847.83 2498.61 5839.67 2489.28 5829C2480.28 5818 2475.78 5803.67 2475.78 5786C2475.78 5772 2479.94 5759.17 2488.28 5747.5C2496.61 5735.83 2508.44 5726.67 2523.78 5720C2539.11 5713 2556.61 5709.5 2576.28 5709.5C2606.61 5709.5 2631.11 5717.17 2649.78 5732.5C2668.44 5747.83 2678.44 5768.83 2679.78 5795.5H2634.28C2633.28 5781.17 2627.44 5769.67 2616.78 5761C2606.44 5752.33 2592.44 5748 2574.78 5748C2558.44 5748 2545.44 5751.5 2535.78 5758.5C2526.11 5765.5 2521.28 5774.67 2521.28 5786C2521.28 5795 2524.11 5802.5 2529.78 5808.5C2535.78 5814.17 2543.11 5818.83 2551.78 5822.5C2560.78 5825.83 2573.11 5829.67 2588.78 5834C2608.44 5839.33 2624.44 5844.67 2636.78 5850C2649.11 5855 2659.61 5862.67 2668.28 5873C2677.28 5883.33 2681.94 5896.83 2682.28 5913.5C2682.28 5928.5 2678.11 5942 2669.78 5954C2661.44 5966 2649.61 5975.5 2634.28 5982.5C2619.28 5989.17 2601.94 5992.5 2582.28 5992.5Z" fill="white"/>
<path d="M1574.5 6809.5H1422.5L1394.5 6887H1346.5L1472.5 6540.5H1525L1650.5 6887H1602.5L1574.5 6809.5ZM1561.5 6772.5L1498.5 6596.5L1435.5 6772.5H1561.5ZM1703.41 6749.5C1703.41 6721.17 1709.08 6696.5 1720.41 6675.5C1731.75 6654.17 1747.41 6637.67 1767.41 6626C1787.75 6614.33 1810.91 6608.5 1836.91 6608.5C1870.58 6608.5 1898.25 6616.67 1919.91 6633C1941.91 6649.33 1956.41 6672 1963.41 6701H1914.41C1909.75 6684.33 1900.58 6671.17 1886.91 6661.5C1873.58 6651.83 1856.91 6647 1836.91 6647C1810.91 6647 1789.91 6656 1773.91 6674C1757.91 6691.67 1749.91 6716.83 1749.91 6749.5C1749.91 6782.5 1757.91 6808 1773.91 6826C1789.91 6844 1810.91 6853 1836.91 6853C1856.91 6853 1873.58 6848.33 1886.91 6839C1900.25 6829.67 1909.41 6816.33 1914.41 6799H1963.41C1956.08 6827 1941.41 6849.5 1919.41 6866.5C1897.41 6883.17 1869.91 6891.5 1836.91 6891.5C1810.91 6891.5 1787.75 6885.67 1767.41 6874C1747.41 6862.33 1731.75 6845.83 1720.41 6824.5C1709.08 6803.17 1703.41 6778.17 1703.41 6749.5ZM2022.13 6749C2022.13 6721 2027.79 6696.5 2039.13 6675.5C2050.46 6654.17 2065.96 6637.67 2085.63 6626C2105.63 6614.33 2127.79 6608.5 2152.13 6608.5C2176.13 6608.5 2196.96 6613.67 2214.63 6624C2232.29 6634.33 2245.46 6647.33 2254.13 6663V6613H2300.13V6887H2254.13V6836C2245.13 6852 2231.63 6865.33 2213.63 6876C2195.96 6886.33 2175.29 6891.5 2151.63 6891.5C2127.29 6891.5 2105.29 6885.5 2085.63 6873.5C2065.96 6861.5 2050.46 6844.67 2039.13 6823C2027.79 6801.33 2022.13 6776.67 2022.13 6749ZM2254.13 6749.5C2254.13 6728.83 2249.96 6710.83 2241.63 6695.5C2233.29 6680.17 2221.96 6668.5 2207.63 6660.5C2193.63 6652.17 2178.13 6648 2161.13 6648C2144.13 6648 2128.63 6652 2114.63 6660C2100.63 6668 2089.46 6679.67 2081.13 6695C2072.79 6710.33 2068.63 6728.33 2068.63 6749C2068.63 6770 2072.79 6788.33 2081.13 6804C2089.46 6819.33 2100.63 6831.17 2114.63 6839.5C2128.63 6847.5 2144.13 6851.5 2161.13 6851.5C2178.13 6851.5 2193.63 6847.5 2207.63 6839.5C2221.96 6831.17 2233.29 6819.33 2241.63 6804C2249.96 6788.33 2254.13 6770.17 2254.13 6749.5ZM2375.02 6749C2375.02 6721 2380.68 6696.5 2392.02 6675.5C2403.35 6654.17 2418.85 6637.67 2438.52 6626C2458.52 6614.33 2480.85 6608.5 2505.52 6608.5C2526.85 6608.5 2546.68 6613.5 2565.02 6623.5C2583.35 6633.17 2597.35 6646 2607.02 6662V6517H2653.02V6887H2607.02V6835.5C2598.02 6851.83 2584.68 6865.33 2567.02 6876C2549.35 6886.33 2528.68 6891.5 2505.02 6891.5C2480.68 6891.5 2458.52 6885.5 2438.52 6873.5C2418.85 6861.5 2403.35 6844.67 2392.02 6823C2380.68 6801.33 2375.02 6776.67 2375.02 6749ZM2607.02 6749.5C2607.02 6728.83 2602.85 6710.83 2594.52 6695.5C2586.18 6680.17 2574.85 6668.5 2560.52 6660.5C2546.52 6652.17 2531.02 6648 2514.02 6648C2497.02 6648 2481.52 6652 2467.52 6660C2453.52 6668 2442.35 6679.67 2434.02 6695C2425.68 6710.33 2421.52 6728.33 2421.52 6749C2421.52 6770 2425.68 6788.33 2434.02 6804C2442.35 6819.33 2453.52 6831.17 2467.52 6839.5C2481.52 6847.5 2497.02 6851.5 2514.02 6851.5C2531.02 6851.5 2546.52 6847.5 2560.52 6839.5C2574.85 6831.17 2586.18 6819.33 2594.52 6804C2602.85 6788.33 2607.02 6770.17 2607.02 6749.5ZM2994.91 6739.5C2994.91 6748.17 2994.41 6757.33 2993.41 6767H2774.41C2776.07 6794 2785.24 6815.17 2801.91 6830.5C2818.91 6845.5 2839.41 6853 2863.41 6853C2883.07 6853 2899.41 6848.5 2912.41 6839.5C2925.74 6830.17 2935.07 6817.83 2940.41 6802.5H2989.41C2982.07 6828.83 2967.41 6850.33 2945.41 6867C2923.41 6883.33 2896.07 6891.5 2863.41 6891.5C2837.41 6891.5 2814.07 6885.67 2793.41 6874C2773.07 6862.33 2757.07 6845.83 2745.41 6824.5C2733.74 6802.83 2727.91 6777.83 2727.91 6749.5C2727.91 6721.17 2733.57 6696.33 2744.91 6675C2756.24 6653.67 2772.07 6637.33 2792.41 6626C2813.07 6614.33 2836.74 6608.5 2863.41 6608.5C2889.41 6608.5 2912.41 6614.17 2932.41 6625.5C2952.41 6636.83 2967.74 6652.5 2978.41 6672.5C2989.41 6692.17 2994.91 6714.5 2994.91 6739.5ZM2947.91 6730C2947.91 6712.67 2944.07 6697.83 2936.41 6685.5C2928.74 6672.83 2918.24 6663.33 2904.91 6657C2891.91 6650.33 2877.41 6647 2861.41 6647C2838.41 6647 2818.74 6654.33 2802.41 6669C2786.41 6683.67 2777.24 6704 2774.91 6730H2947.91ZM3399.46 6608C3420.8 6608 3439.8 6612.5 3456.46 6621.5C3473.13 6630.17 3486.3 6643.33 3495.96 6661C3505.63 6678.67 3510.46 6700.17 3510.46 6725.5V6887H3465.46V6732C3465.46 6704.67 3458.63 6683.83 3444.96 6669.5C3431.63 6654.83 3413.46 6647.5 3390.46 6647.5C3366.8 6647.5 3347.96 6655.17 3333.96 6670.5C3319.96 6685.5 3312.96 6707.33 3312.96 6736V6887H3267.96V6732C3267.96 6704.67 3261.13 6683.83 3247.46 6669.5C3234.13 6654.83 3215.96 6647.5 3192.96 6647.5C3169.3 6647.5 3150.46 6655.17 3136.46 6670.5C3122.46 6685.5 3115.46 6707.33 3115.46 6736V6887H3069.96V6613H3115.46V6652.5C3124.46 6638.17 3136.46 6627.17 3151.46 6619.5C3166.8 6611.83 3183.63 6608 3201.96 6608C3224.96 6608 3245.3 6613.17 3262.96 6623.5C3280.63 6633.83 3293.8 6649 3302.46 6669C3310.13 6649.67 3322.8 6634.67 3340.46 6624C3358.13 6613.33 3377.8 6608 3399.46 6608ZM3836.1 6613L3671.1 7016H3624.1L3678.1 6884L3567.6 6613H3618.1L3704.1 6835L3789.1 6613H3836.1Z" fill="white"/>
<path d="M1724 7439V7785H1678.5V7527L1563.5 7785H1531.5L1416 7526.5V7785H1370.5V7439H1419.5L1547.5 7725L1675.5 7439H1724ZM1799.16 7647C1799.16 7619 1804.83 7594.5 1816.16 7573.5C1827.5 7552.17 1843 7535.67 1862.66 7524C1882.66 7512.33 1904.83 7506.5 1929.16 7506.5C1953.16 7506.5 1974 7511.67 1991.66 7522C2009.33 7532.33 2022.5 7545.33 2031.16 7561V7511H2077.16V7785H2031.16V7734C2022.16 7750 2008.66 7763.33 1990.66 7774C1973 7784.33 1952.33 7789.5 1928.66 7789.5C1904.33 7789.5 1882.33 7783.5 1862.66 7771.5C1843 7759.5 1827.5 7742.67 1816.16 7721C1804.83 7699.33 1799.16 7674.67 1799.16 7647ZM2031.16 7647.5C2031.16 7626.83 2027 7608.83 2018.66 7593.5C2010.33 7578.17 1999 7566.5 1984.66 7558.5C1970.66 7550.17 1955.16 7546 1938.16 7546C1921.16 7546 1905.66 7550 1891.66 7558C1877.66 7566 1866.5 7577.67 1858.16 7593C1849.83 7608.33 1845.66 7626.33 1845.66 7647C1845.66 7668 1849.83 7686.33 1858.16 7702C1866.5 7717.33 1877.66 7729.17 1891.66 7737.5C1905.66 7745.5 1921.16 7749.5 1938.16 7749.5C1955.16 7749.5 1970.66 7745.5 1984.66 7737.5C1999 7729.17 2010.33 7717.33 2018.66 7702C2027 7686.33 2031.16 7668.17 2031.16 7647.5ZM2214.55 7555.5C2222.55 7539.83 2233.89 7527.67 2248.55 7519C2263.55 7510.33 2281.72 7506 2303.05 7506V7553H2291.05C2240.05 7553 2214.55 7580.67 2214.55 7636V7785H2169.05V7511H2214.55V7555.5ZM2523.58 7785L2416.08 7664V7785H2370.58V7415H2416.08V7632.5L2521.58 7511H2585.08L2456.08 7647.5L2585.58 7785H2523.58ZM2892.9 7637.5C2892.9 7646.17 2892.4 7655.33 2891.4 7665H2672.4C2674.07 7692 2683.24 7713.17 2699.9 7728.5C2716.9 7743.5 2737.4 7751 2761.4 7751C2781.07 7751 2797.4 7746.5 2810.4 7737.5C2823.74 7728.17 2833.07 7715.83 2838.4 7700.5H2887.4C2880.07 7726.83 2865.4 7748.33 2843.4 7765C2821.4 7781.33 2794.07 7789.5 2761.4 7789.5C2735.4 7789.5 2712.07 7783.67 2691.4 7772C2671.07 7760.33 2655.07 7743.83 2643.4 7722.5C2631.74 7700.83 2625.9 7675.83 2625.9 7647.5C2625.9 7619.17 2631.57 7594.33 2642.9 7573C2654.24 7551.67 2670.07 7535.33 2690.4 7524C2711.07 7512.33 2734.74 7506.5 2761.4 7506.5C2787.4 7506.5 2810.4 7512.17 2830.4 7523.5C2850.4 7534.83 2865.74 7550.5 2876.4 7570.5C2887.4 7590.17 2892.9 7612.5 2892.9 7637.5ZM2845.9 7628C2845.9 7610.67 2842.07 7595.83 2834.4 7583.5C2826.74 7570.83 2816.24 7561.33 2802.9 7555C2789.9 7548.33 2775.4 7545 2759.4 7545C2736.4 7545 2716.74 7552.33 2700.4 7567C2684.4 7581.67 2675.24 7602 2672.9 7628H2845.9ZM3023.46 7548.5V7710C3023.46 7723.33 3026.29 7732.83 3031.96 7738.5C3037.63 7743.83 3047.46 7746.5 3061.46 7746.5H3094.96V7785H3053.96C3028.63 7785 3009.63 7779.17 2996.96 7767.5C2984.29 7755.83 2977.96 7736.67 2977.96 7710V7548.5H2942.46V7511H2977.96V7442H3023.46V7511H3094.96V7548.5H3023.46Z" fill="white"/>
<path d="M1484 8685.5C1461 8685.5 1440.33 8681.5 1422 8673.5C1404 8665.17 1389.83 8653.83 1379.5 8639.5C1369.17 8624.83 1363.83 8608 1363.5 8589H1412C1413.67 8605.33 1420.33 8619.17 1432 8630.5C1444 8641.5 1461.33 8647 1484 8647C1505.67 8647 1522.67 8641.67 1535 8631C1547.67 8620 1554 8606 1554 8589C1554 8575.67 1550.33 8564.83 1543 8556.5C1535.67 8548.17 1526.5 8541.83 1515.5 8537.5C1504.5 8533.17 1489.67 8528.5 1471 8523.5C1448 8517.5 1429.5 8511.5 1415.5 8505.5C1401.83 8499.5 1390 8490.17 1380 8477.5C1370.33 8464.5 1365.5 8447.17 1365.5 8425.5C1365.5 8406.5 1370.33 8389.67 1380 8375C1389.67 8360.33 1403.17 8349 1420.5 8341C1438.17 8333 1458.33 8329 1481 8329C1513.67 8329 1540.33 8337.17 1561 8353.5C1582 8369.83 1593.83 8391.5 1596.5 8418.5H1546.5C1544.83 8405.17 1537.83 8393.5 1525.5 8383.5C1513.17 8373.17 1496.83 8368 1476.5 8368C1457.5 8368 1442 8373 1430 8383C1418 8392.67 1412 8406.33 1412 8424C1412 8436.67 1415.5 8447 1422.5 8455C1429.83 8463 1438.67 8469.17 1449 8473.5C1459.67 8477.5 1474.5 8482.17 1493.5 8487.5C1516.5 8493.83 1535 8500.17 1549 8506.5C1563 8512.5 1575 8522 1585 8535C1595 8547.67 1600 8565 1600 8587C1600 8604 1595.5 8620 1586.5 8635C1577.5 8650 1564.17 8662.17 1546.5 8671.5C1528.83 8680.83 1508 8685.5 1484 8685.5ZM1931.96 8534.5C1931.96 8543.17 1931.46 8552.33 1930.46 8562H1711.46C1713.12 8589 1722.29 8610.17 1738.96 8625.5C1755.96 8640.5 1776.46 8648 1800.46 8648C1820.12 8648 1836.46 8643.5 1849.46 8634.5C1862.79 8625.17 1872.12 8612.83 1877.46 8597.5H1926.46C1919.12 8623.83 1904.46 8645.33 1882.46 8662C1860.46 8678.33 1833.12 8686.5 1800.46 8686.5C1774.46 8686.5 1751.12 8680.67 1730.46 8669C1710.12 8657.33 1694.12 8640.83 1682.46 8619.5C1670.79 8597.83 1664.96 8572.83 1664.96 8544.5C1664.96 8516.17 1670.62 8491.33 1681.96 8470C1693.29 8448.67 1709.12 8432.33 1729.46 8421C1750.12 8409.33 1773.79 8403.5 1800.46 8403.5C1826.46 8403.5 1849.46 8409.17 1869.46 8420.5C1889.46 8431.83 1904.79 8447.5 1915.46 8467.5C1926.46 8487.17 1931.96 8509.5 1931.96 8534.5ZM1884.96 8525C1884.96 8507.67 1881.12 8492.83 1873.46 8480.5C1865.79 8467.83 1855.29 8458.33 1841.96 8452C1828.96 8445.33 1814.46 8442 1798.46 8442C1775.46 8442 1755.79 8449.33 1739.46 8464C1723.46 8478.67 1714.29 8499 1711.96 8525H1884.96ZM2062.52 8445.5V8607C2062.52 8620.33 2065.35 8629.83 2071.02 8635.5C2076.68 8640.83 2086.52 8643.5 2100.52 8643.5H2134.02V8682H2093.02C2067.68 8682 2048.68 8676.17 2036.02 8664.5C2023.35 8652.83 2017.02 8633.67 2017.02 8607V8445.5H1981.52V8408H2017.02V8339H2062.52V8408H2134.02V8445.5H2062.52ZM2259.64 8445.5V8607C2259.64 8620.33 2262.48 8629.83 2268.14 8635.5C2273.81 8640.83 2283.64 8643.5 2297.64 8643.5H2331.14V8682H2290.14C2264.81 8682 2245.81 8676.17 2233.14 8664.5C2220.48 8652.83 2214.14 8633.67 2214.14 8607V8445.5H2178.64V8408H2214.14V8339H2259.64V8408H2331.14V8445.5H2259.64ZM2424.77 8363.5C2416.11 8363.5 2408.77 8360.5 2402.77 8354.5C2396.77 8348.5 2393.77 8341.17 2393.77 8332.5C2393.77 8323.83 2396.77 8316.5 2402.77 8310.5C2408.77 8304.5 2416.11 8301.5 2424.77 8301.5C2433.11 8301.5 2440.11 8304.5 2445.77 8310.5C2451.77 8316.5 2454.77 8323.83 2454.77 8332.5C2454.77 8341.17 2451.77 8348.5 2445.77 8354.5C2440.11 8360.5 2433.11 8363.5 2424.77 8363.5ZM2446.77 8408V8682H2401.27V8408H2446.77ZM2672.82 8403C2706.15 8403 2733.15 8413.17 2753.82 8433.5C2774.49 8453.5 2784.82 8482.5 2784.82 8520.5V8682H2739.82V8527C2739.82 8499.67 2732.99 8478.83 2719.32 8464.5C2705.65 8449.83 2686.99 8442.5 2663.32 8442.5C2639.32 8442.5 2620.15 8450 2605.82 8465C2591.82 8480 2584.82 8501.83 2584.82 8530.5V8682H2539.32V8408H2584.82V8447C2593.82 8433 2605.99 8422.17 2621.32 8414.5C2636.99 8406.83 2654.15 8403 2672.82 8403ZM2987.14 8403.5C3010.81 8403.5 3031.48 8408.67 3049.14 8419C3067.14 8429.33 3080.48 8442.33 3089.14 8458V8408H3135.14V8688C3135.14 8713 3129.81 8735.17 3119.14 8754.5C3108.48 8774.17 3093.14 8789.5 3073.14 8800.5C3053.48 8811.5 3030.48 8817 3004.14 8817C2968.14 8817 2938.14 8808.5 2914.14 8791.5C2890.14 8774.5 2875.98 8751.33 2871.64 8722H2916.64C2921.64 8738.67 2931.98 8752 2947.64 8762C2963.31 8772.33 2982.14 8777.5 3004.14 8777.5C3029.14 8777.5 3049.48 8769.67 3065.14 8754C3081.14 8738.33 3089.14 8716.33 3089.14 8688V8630.5C3080.14 8646.5 3066.81 8659.83 3049.14 8670.5C3031.48 8681.17 3010.81 8686.5 2987.14 8686.5C2962.81 8686.5 2940.64 8680.5 2920.64 8668.5C2900.98 8656.5 2885.48 8639.67 2874.14 8618C2862.81 8596.33 2857.14 8571.67 2857.14 8544C2857.14 8516 2862.81 8491.5 2874.14 8470.5C2885.48 8449.17 2900.98 8432.67 2920.64 8421C2940.64 8409.33 2962.81 8403.5 2987.14 8403.5ZM3089.14 8544.5C3089.14 8523.83 3084.98 8505.83 3076.64 8490.5C3068.31 8475.17 3056.98 8463.5 3042.64 8455.5C3028.64 8447.17 3013.14 8443 2996.14 8443C2979.14 8443 2963.64 8447 2949.64 8455C2935.64 8463 2924.48 8474.67 2916.14 8490C2907.81 8505.33 2903.64 8523.33 2903.64 8544C2903.64 8565 2907.81 8583.33 2916.14 8599C2924.48 8614.33 2935.64 8626.17 2949.64 8634.5C2963.64 8642.5 2979.14 8646.5 2996.14 8646.5C3013.14 8646.5 3028.64 8642.5 3042.64 8634.5C3056.98 8626.17 3068.31 8614.33 3076.64 8599C3084.98 8583.33 3089.14 8565.17 3089.14 8544.5Z" fill="white"/>
<path d="M3136.41 10598V10798H3205.41C3264.73 10798 3294.18 10762.1 3294.18 10697.7C3294.18 10633.4 3265.03 10598 3205.41 10598H3136.41ZM3169.66 10626H3201.89C3242.76 10626 3259.9 10652.4 3259.9 10698.1C3259.9 10749.5 3238.95 10770 3201.89 10770H3169.66V10626ZM3453.4 10770H3361.71V10709.8H3448.13V10683H3361.71V10626H3453.4V10598H3328.6V10798H3453.4V10770ZM3517.42 10686.2C3517.42 10645.5 3534.7 10622.8 3565.32 10622.8C3591.39 10622.8 3608.68 10640.2 3609.12 10665.3H3641.49V10663.1C3641.49 10622.5 3609.41 10594.1 3565.17 10594.1C3513.61 10594.1 3483.87 10628.8 3483.87 10686.2V10710.7C3483.87 10767.7 3513.61 10802 3565.17 10802C3609.26 10802 3641.49 10774.4 3641.49 10735.7V10733.5H3609.12C3608.68 10757 3591.39 10773.4 3565.32 10773.4C3534.7 10773.4 3517.42 10751 3517.42 10710.8V10686.2ZM3798.67 10769.1H3710.48V10598H3677.23V10798H3798.67V10769.1ZM3858.43 10798V10598H3825.18V10798H3858.43ZM3934.75 10798V10654H3935.63L4030.41 10798H4059.41V10598H4028.21V10741.6H4027.18L3932.7 10598H3903.4V10798H3934.75ZM4229.19 10770H4137.49V10709.8H4223.91V10683H4137.49V10626H4229.19V10598H4104.38V10798H4229.19V10770Z" fill="white"/>
<path d="M19692.4 12942V13142H19761.4C19820.7 13142 19850.2 13106.1 19850.2 13041.7C19850.2 12977.4 19821 12942 19761.4 12942H19692.4ZM19725.7 12970H19757.9C19798.8 12970 19815.9 12996.4 19815.9 13042.1C19815.9 13093.5 19795 13114 19757.9 13114H19725.7V12970ZM20009.4 13114H19917.7V13053.8H20004.1V13027H19917.7V12970H20009.4V12942H19884.6V13142H20009.4V13114ZM20073.4 13030.2C20073.4 12989.5 20090.7 12966.8 20121.3 12966.8C20147.4 12966.8 20164.7 12984.2 20165.1 13009.3H20197.5V13007.1C20197.5 12966.5 20165.4 12938.1 20121.2 12938.1C20069.6 12938.1 20039.9 12972.8 20039.9 13030.2V13054.7C20039.9 13111.7 20069.6 13146 20121.2 13146C20165.3 13146 20197.5 13118.4 20197.5 13079.7V13077.5H20165.1C20164.7 13101 20147.4 13117.4 20121.3 13117.4C20090.7 13117.4 20073.4 13095 20073.4 13054.8V13030.2ZM20354.7 13113.1H20266.5V12942H20233.2V13142H20354.7V13113.1ZM20414.4 13142V12942H20381.2V13142H20414.4ZM20490.8 13142V12998H20491.6L20586.4 13142H20615.4V12942H20584.2V13085.6H20583.2L20488.7 12942H20459.4V13142H20490.8ZM20785.2 13114H20693.5V13053.8H20779.9V13027H20693.5V12970H20785.2V12942H20660.4V13142H20785.2V13114Z" fill="white"/>
<rect x="1332" y="12205" width="3989" height="548" rx="100" fill="black" fill-opacity="0.3"/>
<rect x="1332" y="10417" width="1285" height="548" rx="100" fill="#C4C4C4" fill-opacity="0.3"/>
<rect x="3037" y="10417" width="1285" height="548" rx="100" fill="black" fill-opacity="0.3"/>
<path d="M1489.77 10798L1507.64 10742.6H1577.8L1595.53 10798H1630.69L1561.98 10598H1524.78L1455.93 10798H1489.77ZM1543.53 10632.6L1570.33 10717.1H1515.11L1542.21 10632.6H1543.53ZM1678.29 10686.2C1678.29 10645.5 1695.58 10622.8 1726.19 10622.8C1752.27 10622.8 1769.55 10640.2 1769.99 10665.3H1802.37V10663.1C1802.37 10622.5 1770.29 10594.1 1726.05 10594.1C1674.48 10594.1 1644.75 10628.8 1644.75 10686.2V10710.7C1644.75 10767.7 1674.48 10802 1726.05 10802C1770.14 10802 1802.37 10774.4 1802.37 10735.7V10733.5H1769.99C1769.55 10757 1752.27 10773.4 1726.19 10773.4C1695.58 10773.4 1678.29 10751 1678.29 10710.8V10686.2ZM1863.74 10686.2C1863.74 10645.5 1881.03 10622.8 1911.64 10622.8C1937.72 10622.8 1955 10640.2 1955.44 10665.3H1987.81V10663.1C1987.81 10622.5 1955.73 10594.1 1911.5 10594.1C1859.93 10594.1 1830.2 10628.8 1830.2 10686.2V10710.7C1830.2 10767.7 1859.93 10802 1911.5 10802C1955.59 10802 1987.81 10774.4 1987.81 10735.7V10733.5H1955.44C1955 10757 1937.72 10773.4 1911.64 10773.4C1881.03 10773.4 1863.74 10751 1863.74 10710.8V10686.2ZM2148.36 10770H2056.66V10709.8H2143.09V10683H2056.66V10626H2148.36V10598H2023.56V10798H2148.36V10770ZM2186.74 10598V10798H2219.99V10727.1H2263.35C2304.07 10727.1 2329.27 10700.4 2329.27 10662.6C2329.27 10625.3 2304.37 10598 2263.5 10598H2186.74ZM2219.99 10625.6H2258.52C2281.66 10625.6 2295.43 10639.1 2295.43 10662.6C2295.43 10692.4 2277.27 10699.9 2246.65 10699.9H2219.99V10625.6ZM2434.01 10798V10626.5H2492.75V10598H2342.31V10626.5H2401.05V10798H2434.01Z" fill="white"/>
<rect x="19546" y="12758" width="1379" height="548" rx="100" fill="black" fill-opacity="0.3"/>
<rect x="18104" y="12758" width="1285" height="548" rx="100" fill="#C4C4C4" fill-opacity="0.3"/>
<path d="M18260.8 13142L18278.6 13086.6H18348.8L18366.5 13142H18401.7L18333 12942H18295.8L18226.9 13142H18260.8ZM18314.5 12976.6L18341.3 13061.1H18286.1L18313.2 12976.6H18314.5ZM18449.3 13030.2C18449.3 12989.5 18466.6 12966.8 18497.2 12966.8C18523.3 12966.8 18540.6 12984.2 18541 13009.3H18573.4V13007.1C18573.4 12966.5 18541.3 12938.1 18497 12938.1C18445.5 12938.1 18415.7 12972.8 18415.7 13030.2V13054.7C18415.7 13111.7 18445.5 13146 18497 13146C18541.1 13146 18573.4 13118.4 18573.4 13079.7V13077.5H18541C18540.6 13101 18523.3 13117.4 18497.2 13117.4C18466.6 13117.4 18449.3 13095 18449.3 13054.8V13030.2ZM18634.7 13030.2C18634.7 12989.5 18652 12966.8 18682.6 12966.8C18708.7 12966.8 18726 12984.2 18726.4 13009.3H18758.8V13007.1C18758.8 12966.5 18726.7 12938.1 18682.5 12938.1C18630.9 12938.1 18601.2 12972.8 18601.2 13030.2V13054.7C18601.2 13111.7 18630.9 13146 18682.5 13146C18726.6 13146 18758.8 13118.4 18758.8 13079.7V13077.5H18726.4C18726 13101 18708.7 13117.4 18682.6 13117.4C18652 13117.4 18634.7 13095 18634.7 13054.8V13030.2ZM18919.4 13114H18827.7V13053.8H18914.1V13027H18827.7V12970H18919.4V12942H18794.6V13142H18919.4V13114ZM18957.7 12942V13142H18991V13071.1H19034.4C19075.1 13071.1 19100.3 13044.4 19100.3 13006.6C19100.3 12969.3 19075.4 12942 19034.5 12942H18957.7ZM18991 12969.6H19029.5C19052.7 12969.6 19066.4 12983.1 19066.4 13006.6C19066.4 13036.4 19048.3 13043.9 19017.7 13043.9H18991V12969.6ZM19205 13142V12970.5H19263.7V12942H19113.3V12970.5H19172V13142H19205Z" fill="white"/>
<path d="M3908.5 11606.6C3908.5 11663.1 3940.29 11696 3991.56 11696C4042.68 11696 4074.91 11663.1 4074.91 11606.6V11579.2C4074.91 11522.5 4043.12 11488.1 3991.85 11488.1C3940.88 11488.1 3908.5 11522.4 3908.5 11579.2V11606.6ZM3942.05 11578.9C3942.05 11537.6 3963.29 11516.5 3991.71 11516.5C4020.12 11516.5 4041.22 11537.6 4041.22 11578.9V11606.6C4041.22 11648.1 4020.12 11667.7 3991.71 11667.7C3963.29 11667.7 3942.05 11648.1 3942.05 11606.6V11578.9ZM4143.17 11692V11548H4144.05L4238.82 11692H4267.83V11492H4236.63V11635.6H4235.6L4141.12 11492H4111.82V11692H4143.17ZM4434.23 11663.1H4346.05V11492H4312.8V11692H4434.23V11663.1ZM4494 11692V11492H4460.75V11692H4494ZM4570.32 11692V11548H4571.2L4665.97 11692H4694.98V11492H4663.78V11635.6H4662.75L4568.27 11492H4538.97V11692H4570.32ZM4864.75 11664H4773.05V11603.8H4859.48V11577H4773.05V11520H4864.75V11492H4739.95V11692H4864.75V11664Z" fill="white"/>
<path d="M1573.77 12568L1591.64 12512.6H1661.8L1679.53 12568H1714.69L1645.98 12368H1608.78L1539.93 12568H1573.77ZM1627.53 12402.6L1654.33 12487.1H1599.11L1626.21 12402.6H1627.53ZM1740.17 12368V12568H1809.17C1868.49 12568 1897.94 12532.1 1897.94 12467.7C1897.94 12403.4 1868.79 12368 1809.17 12368H1740.17ZM1773.43 12396H1805.65C1846.52 12396 1863.66 12422.4 1863.66 12468.1C1863.66 12519.5 1842.71 12540 1805.65 12540H1773.43V12396ZM1932.36 12368V12568H2001.36C2060.68 12568 2090.12 12532.1 2090.12 12467.7C2090.12 12403.4 2060.97 12368 2001.36 12368H1932.36ZM1965.61 12396H1997.84C2038.71 12396 2055.85 12422.4 2055.85 12468.1C2055.85 12519.5 2034.9 12540 1997.84 12540H1965.61V12396ZM2346.47 12613.6V12357.5H2317.47V12613.6H2346.47ZM2584.22 12368V12568H2653.21C2712.54 12568 2741.98 12532.1 2741.98 12467.7C2741.98 12403.4 2712.83 12368 2653.21 12368H2584.22ZM2617.47 12396H2649.7C2690.56 12396 2707.7 12422.4 2707.7 12468.1C2707.7 12519.5 2686.76 12540 2649.7 12540H2617.47V12396ZM2901.21 12540H2809.51V12479.8H2895.94V12453H2809.51V12396H2901.21V12368H2776.4V12568H2901.21V12540ZM3061.02 12539.1H2972.84V12368H2939.59V12568H3061.02V12539.1ZM3212.34 12540H3120.64V12479.8H3207.07V12453H3120.64V12396H3212.34V12368H3087.54V12568H3212.34V12540ZM3322.5 12568V12396.5H3381.24V12368H3230.8V12396.5H3289.54V12568H3322.5ZM3531.09 12540H3439.39V12479.8H3525.82V12453H3439.39V12396H3531.09V12368H3406.29V12568H3531.09V12540ZM3791.39 12613.6V12357.5H3762.39V12613.6H3791.39ZM4105.6 12368H4029.14V12568H4062.1V12491.1H4103.55L4139.44 12568H4176.79L4136.37 12485.5C4152.62 12479.5 4172.99 12462.5 4172.99 12429.6C4172.99 12396.2 4151.75 12368 4105.6 12368ZM4062.1 12464.7V12395.3H4101.06C4123.47 12395.3 4138.86 12407.2 4138.86 12430.7C4138.86 12452.7 4124.94 12464.7 4100.18 12464.7H4062.1ZM4335.58 12540H4243.88V12479.8H4330.31V12453H4243.88V12396H4335.58V12368H4210.78V12568H4335.58V12540ZM4404.43 12568V12429.9H4405.6L4457.46 12546.8H4481.34L4533.04 12429.9H4534.36V12568H4564.39V12368H4531.14L4470.06 12508.7H4469.03L4407.95 12368H4374.55V12568H4404.43ZM4601.89 12482.6C4601.89 12539.1 4633.68 12572 4684.95 12572C4736.07 12572 4768.3 12539.1 4768.3 12482.6V12455.2C4768.3 12398.5 4736.51 12364.1 4685.24 12364.1C4634.27 12364.1 4601.89 12398.4 4601.89 12455.2V12482.6ZM4635.44 12454.9C4635.44 12413.6 4656.68 12392.5 4685.1 12392.5C4713.51 12392.5 4734.61 12413.6 4734.61 12454.9V12482.6C4734.61 12524.1 4713.51 12543.7 4685.1 12543.7C4656.68 12543.7 4635.44 12524.1 4635.44 12482.6V12454.9ZM4886.95 12568L4955.95 12368H4918.74L4869.23 12528.6H4868.05L4818.1 12368H4779.87L4849.01 12568H4886.95ZM5108.14 12540H5016.44V12479.8H5102.87V12453H5016.44V12396H5108.14V12368H4983.34V12568H5108.14V12540Z" fill="white"/>
<rect x="1345" y="11321" width="1759" height="528" rx="90" stroke="white" stroke-width="20"/>
<path d="M1634.5 11606.6C1634.5 11663.1 1666.29 11696 1717.56 11696C1768.68 11696 1800.91 11663.1 1800.91 11606.6V11579.2C1800.91 11522.5 1769.12 11488.1 1717.85 11488.1C1666.88 11488.1 1634.5 11522.4 1634.5 11579.2V11606.6ZM1668.05 11578.9C1668.05 11537.6 1689.29 11516.5 1717.71 11516.5C1746.12 11516.5 1767.22 11537.6 1767.22 11578.9V11606.6C1767.22 11648.1 1746.12 11667.7 1717.71 11667.7C1689.29 11667.7 1668.05 11648.1 1668.05 11606.6V11578.9ZM1868.58 11492H1835.62V11624.9C1835.62 11666.8 1865.07 11696 1914.14 11696C1963.07 11696 1992.66 11666.8 1992.66 11624.9V11492H1959.55V11620.4C1959.55 11649.5 1941.53 11667.2 1914.14 11667.2C1886.6 11667.2 1868.58 11649.7 1868.58 11620.4V11492ZM2111.46 11692V11520.5H2170.2V11492H2019.76V11520.5H2078.5V11692H2111.46ZM2316.68 11663.1H2228.5V11492H2195.24V11692H2316.68V11663.1ZM2376.45 11692V11492H2343.19V11692H2376.45ZM2452.76 11692V11548H2453.64L2548.42 11692H2577.42V11492H2546.22V11635.6H2545.2L2450.71 11492H2421.42V11692H2452.76ZM2747.2 11664H2655.5V11603.8H2741.92V11577H2655.5V11520H2747.2V11492H2622.39V11692H2747.2V11664Z" fill="white"/>
<circle cx="3730" cy="11585" r="50" fill="#4DC459"/>
<circle cx="19634" cy="4780" r="50" fill="#4DC459"/>
<circle cx="19389" cy="4780" r="50" fill="#4DC459"/>
<circle cx="19144" cy="4780" r="50" fill="#4DC459"/>
<circle cx="18890" cy="4780" r="50" fill="#ACACAC"/>
<circle cx="18636" cy="4780" r="50" fill="#ACACAC"/>
<path d="M18783.5 1149.6C18783.5 1206.14 18815.3 1238.96 18866.6 1238.96C18917.7 1238.96 18949.9 1206.14 18949.9 1149.6V1122.21C18949.9 1065.52 18918.1 1031.09 18866.9 1031.09C18815.9 1031.09 18783.5 1065.37 18783.5 1122.21V1149.6ZM18817 1121.91C18817 1080.61 18838.3 1059.51 18866.7 1059.51C18895.1 1059.51 18916.2 1080.61 18916.2 1121.91V1149.6C18916.2 1191.05 18895.1 1210.68 18866.7 1210.68C18838.3 1210.68 18817 1191.05 18817 1149.6V1121.91ZM19018.2 1235V1091.01H19019L19113.8 1235H19142.8V1035.05H19111.6V1178.6H19110.6L19016.1 1035.05H18986.8V1235H19018.2ZM19309.2 1206.14H19221.1V1035.05H19187.8V1235H19309.2V1206.14ZM19369 1235V1035.05H19335.7V1235H19369ZM19445.3 1235V1091.01H19446.2L19541 1235H19570V1035.05H19538.8V1178.6H19537.8L19443.3 1035.05H19414V1235H19445.3ZM19739.8 1207.02H19648.1V1146.82H19734.5V1120.01H19648.1V1063.03H19739.8V1035.05H19614.9V1235H19739.8V1207.02Z" fill="white"/>
<circle cx="18605" cy="1128" r="50" fill="#4DC459"/>
<path d="M3468.4 1994L3583.39 1660.75H3521.38L3438.86 1928.33H3436.9L3353.65 1660.75H3289.93L3405.16 1994H3468.4ZM3868.54 1765C3865.12 1701.76 3817.27 1654.16 3740.12 1654.16C3653.21 1654.16 3602.67 1711.53 3602.67 1801.86V1848.49C3602.67 1941.75 3648.57 2000.59 3740.86 2000.59C3820.2 2000.59 3869.28 1948.59 3869.28 1884.62V1817.24H3739.64V1860.94H3816.3V1887.07C3816.3 1925.15 3786.76 1953.23 3741.59 1953.23C3685.19 1953.23 3658.09 1913.19 3658.09 1848.25V1802.11C3658.09 1738.63 3688.12 1701.52 3739.88 1701.52C3782.61 1701.52 3809.71 1726.42 3814.34 1765H3868.54ZM3925.92 1796.25C3925.92 1814.56 3940.81 1829.69 3959.36 1829.69C3977.67 1829.69 3992.81 1814.56 3992.81 1796.25C3992.81 1777.94 3977.67 1762.8 3959.36 1762.8C3940.81 1762.8 3925.92 1777.94 3925.92 1796.25ZM3925.92 1965.44C3925.92 1983.99 3940.81 1999.13 3959.36 1999.13C3977.67 1999.13 3992.81 1983.99 3992.81 1965.44C3992.81 1947.12 3977.67 1931.99 3959.36 1931.99C3940.81 1931.99 3925.92 1947.12 3925.92 1965.44ZM4106.82 1807.72C4106.82 1739.85 4135.63 1702.01 4186.66 1702.01C4230.12 1702.01 4258.92 1731.06 4259.66 1772.81H4313.61V1769.15C4313.61 1701.52 4260.14 1654.16 4186.41 1654.16C4100.48 1654.16 4050.92 1712.02 4050.92 1807.72V1848.49C4050.92 1943.46 4100.48 2000.59 4186.41 2000.59C4259.9 2000.59 4313.61 1954.69 4313.61 1890.24V1886.58H4259.66C4258.92 1925.64 4230.12 1952.98 4186.66 1952.98C4135.63 1952.98 4106.82 1915.63 4106.82 1848.74V1807.72ZM4581.19 1947.37H4428.36V1847.03H4572.4V1802.35H4428.36V1707.38H4581.19V1660.75H4373.18V1994H4581.19V1947.37Z" fill="white"/>
<rect x="20085" y="367" width="840" height="840" rx="420" fill="#C4C4C4" fill-opacity="0.1"/>
<path d="M20637 748.815C20637 671.646 20578.7 617 20505.2 617C20432.4 617 20373 671.646 20373 748.815C20373 826.354 20432.4 881 20505.2 881C20578.3 881 20637 826.354 20637 748.815ZM20426.2 748.815C20426.2 696.385 20458.3 663.523 20505.2 663.523C20551.7 663.523 20583.8 696.385 20583.8 748.815C20583.8 801.246 20551.7 834.846 20505.2 834.846C20458.3 834.846 20426.2 801.246 20426.2 748.815Z" fill="white"/>
<path d="M20657 3487.79C20657 3398.93 20589.8 3336 20505.2 3336C20421.5 3336 20353 3398.93 20353 3487.79C20353 3577.07 20421.5 3640 20505.2 3640C20589.4 3640 20657 3577.07 20657 3487.79ZM20414.2 3487.79C20414.2 3427.41 20451.2 3389.57 20505.2 3389.57C20558.8 3389.57 20595.8 3427.41 20595.8 3487.79C20595.8 3548.16 20558.8 3586.85 20505.2 3586.85C20451.2 3586.85 20414.2 3548.16 20414.2 3487.79Z" fill="white"/>
<path d="M20534 892.704C20534 881.269 20521.9 872 20507 872C20492.1 872 20480 881.269 20480 892.704V1048.3C20480 1059.73 20492.1 1069 20507 1069C20521.9 1069 20534 1059.73 20534 1048.3V892.704Z" fill="white"/>
<path d="M20507.5 1091L20481 1053H20534L20507.5 1091Z" fill="white"/>
<path d="M20534 503.125C20534 495.876 20521.9 490 20507 490C20492.1 490 20480 495.876 20480 503.125V623.875C20480 631.124 20492.1 637 20507 637C20521.9 637 20534 631.124 20534 623.875V503.125Z" fill="white"/>
<path d="M16653.3 14236V14119H16654.5L16735.8 14236H16758.9V14078.5H16734.2V14195.4H16733.1L16651.8 14078.5H16628.7V14236H16653.3ZM16893.3 14215.6H16814.8V14165.8H16888.8V14145.8H16814.8V14098.9H16893.3V14078.5H16789.5V14236H16893.3V14215.6ZM16987.6 14236L17047.1 14078.5H17018.2L16974.7 14208.8H16973.3L16929.5 14078.5H16900.3L16959.6 14236H16987.6ZM17163.6 14215.6H17085.1V14165.8H17159.1V14145.8H17085.1V14098.9H17163.6V14078.5H17059.8V14236H17163.6V14215.6ZM17251.5 14078.5H17188.3V14236H17213.7V14174.8H17251L17281.6 14236H17310.5L17276.2 14170.5C17290.4 14165.5 17307.4 14152.4 17307.4 14126.6C17307.4 14100.8 17290 14078.5 17251.5 14078.5ZM17213.7 14154.8V14098.6H17248.1C17267.9 14098.6 17281.1 14108.4 17281.1 14127.5C17281.1 14145.2 17269.2 14154.8 17247.2 14154.8H17213.7ZM17364.9 14192.8C17365.5 14213.7 17381 14239.2 17427.3 14239.2C17464.2 14239.2 17491.6 14222.2 17491.6 14191.5C17491.6 14165.1 17472.8 14154 17447.1 14148.1L17418.9 14141.4C17403 14137.9 17395.3 14130.1 17395.3 14119.4C17395.3 14103.9 17409.3 14095.4 17429.2 14095.4C17451.9 14095.4 17463.5 14106.5 17464.8 14120.4H17489.4C17488.8 14090.7 17460.8 14075 17429.6 14075C17398 14075 17369.6 14091.3 17369.6 14121.2C17369.6 14146.4 17389.2 14158.4 17410.1 14163.1L17438.7 14169.8C17457.2 14174 17465.8 14180.9 17465.8 14193.4C17465.8 14209 17451.9 14218.7 17429.5 14218.7C17404.7 14218.7 17391.4 14207 17390.1 14192.8H17364.9ZM17617.2 14215.6H17538.7V14165.8H17612.7V14145.8H17538.7V14098.9H17617.2V14078.5H17513.4V14236H17617.2V14215.6ZM17700.4 14236V14099H17750.6V14078.5H17624.6V14099H17674.9V14236H17700.4ZM17825.7 14236V14099H17875.9V14078.5H17750V14099H17800.2V14236H17825.7ZM17990.7 14215.5H17914.8V14078.5H17889.3V14236H17990.7V14215.5ZM18108.3 14215.6H18029.8V14165.8H18103.7V14145.8H18029.8V14098.9H18108.3V14078.5H18004.4V14236H18108.3V14215.6ZM18203.5 14236V14169.8H18274V14149.6H18203.5V14099.2H18280.4V14078.5H18178V14236H18203.5ZM18291.7 14169.2C18291.7 14213.6 18318.2 14239.2 18360.5 14239.2C18403 14239.2 18429.9 14213.6 18429.9 14169.2V14146.9C18429.9 14102.4 18403.4 14075.5 18360.9 14075.5C18318.8 14075.5 18291.7 14102.1 18291.7 14146.9V14169.2ZM18317.3 14146.8C18317.3 14113.2 18335.9 14096.1 18360.6 14096.1C18385.6 14096.1 18404.2 14113.2 18404.2 14146.8V14169.2C18404.2 14202.9 18385.6 14218.6 18360.6 14218.6C18335.9 14218.6 18317.3 14202.9 18317.3 14169.2V14146.8ZM18516.7 14078.5H18453.6V14236H18478.9V14174.8H18516.3L18546.9 14236H18575.8L18541.5 14170.5C18555.7 14165.5 18572.7 14152.4 18572.7 14126.6C18572.7 14100.8 18555.3 14078.5 18516.7 14078.5ZM18478.9 14154.8V14098.6H18513.4C18533.1 14098.6 18546.3 14108.4 18546.3 14127.5C18546.3 14145.2 18534.5 14154.8 18512.5 14154.8H18478.9ZM18700.6 14236V14099H18750.9V14078.5H18624.9V14099H18675.1V14236H18700.6ZM18895.8 14236V14078.5H18870.2V14144.7H18789.8V14078.5H18764.3V14236H18789.8V14165.2H18870.2V14236H18895.8ZM19030.1 14215.6H18951.6V14165.8H19025.5V14145.8H18951.6V14098.9H19030.1V14078.5H18926.2V14236H19030.1V14215.6ZM19201.2 14215.5H19125.3V14078.5H19099.8V14236H19201.2V14215.5ZM19318.8 14215.6H19240.3V14165.8H19314.2V14145.8H19240.3V14098.9H19318.8V14078.5H19214.9V14236H19318.8V14215.6ZM19331.5 14192.8C19332 14213.7 19347.6 14239.2 19393.9 14239.2C19430.8 14239.2 19458.2 14222.2 19458.2 14191.5C19458.2 14165.1 19439.4 14154 19413.6 14148.1L19385.5 14141.4C19369.5 14137.9 19361.9 14130.1 19361.9 14119.4C19361.9 14103.9 19375.8 14095.4 19395.8 14095.4C19418.5 14095.4 19430 14106.5 19431.4 14120.4H19456C19455.4 14090.7 19427.4 14075 19396.2 14075C19364.6 14075 19336.1 14091.3 19336.1 14121.2C19336.1 14146.4 19355.8 14158.4 19376.7 14163.1L19405.3 14169.8C19423.7 14174 19432.4 14180.9 19432.4 14193.4C19432.4 14209 19418.5 14218.7 19396.1 14218.7C19371.3 14218.7 19358 14207 19356.7 14192.8H19331.5ZM19467.9 14192.8C19468.5 14213.7 19484 14239.2 19530.3 14239.2C19567.2 14239.2 19594.6 14222.2 19594.6 14191.5C19594.6 14165.1 19575.9 14154 19550.1 14148.1L19522 14141.4C19506 14137.9 19498.4 14130.1 19498.4 14119.4C19498.4 14103.9 19512.3 14095.4 19532.2 14095.4C19554.9 14095.4 19566.5 14106.5 19567.8 14120.4H19592.4C19591.8 14090.7 19563.9 14075 19532.7 14075C19501 14075 19472.6 14091.3 19472.6 14121.2C19472.6 14146.4 19492.2 14158.4 19513.2 14163.1L19541.8 14169.8C19560.2 14174 19568.9 14180.9 19568.9 14193.4C19568.9 14209 19554.9 14218.7 19532.5 14218.7C19507.8 14218.7 19494.4 14207 19493.1 14192.8H19467.9ZM19720.3 14215.6H19641.7V14165.8H19715.7V14145.8H19641.7V14098.9H19720.3V14078.5H19616.4V14236H19720.3V14215.6ZM19808.1 14078.5H19745V14236H19770.3V14174.8H19807.7L19838.3 14236H19867.1L19832.8 14170.5C19847.1 14165.5 19864 14152.4 19864 14126.6C19864 14100.8 19846.6 14078.5 19808.1 14078.5ZM19770.3 14154.8V14098.6H19804.7C19824.5 14098.6 19837.7 14108.4 19837.7 14127.5C19837.7 14145.2 19825.8 14154.8 19803.8 14154.8H19770.3ZM20037.4 14215.6H19958.9V14165.8H20032.8V14145.8H19958.9V14098.9H20037.4V14078.5H19933.5V14236H20037.4V14215.6ZM20131.6 14236L20191.1 14078.5H20162.3L20118.8 14208.8H20117.3L20073.5 14078.5H20044.3L20103.7 14236H20131.6ZM20195.7 14236H20291.1V14215.9H20256.1V14098.6H20291.1V14078.5H20195.7V14098.6H20230.6V14215.9H20195.7V14236ZM20411.8 14215.5H20335.9V14078.5H20310.4V14236H20411.8V14215.5ZM20428.7 14221.9C20428.7 14231.2 20436.3 14238.8 20445.5 14238.8C20454.9 14238.8 20462.5 14231.2 20462.5 14221.9C20462.5 14212.6 20454.9 14204.9 20445.5 14204.9C20436.3 14204.9 20428.7 14212.6 20428.7 14221.9Z" fill="white"/>
<path d="M18257.5 417C18310.8 417 18354 433.167 18387 465.5C18420.3 497.5 18437 539.667 18437 592C18437 644.333 18420.3 686.667 18387 719C18354 751 18310.8 767 18257.5 767H18088V762H18094.5C18103.2 762 18110.5 759 18116.5 753C18122.8 746.667 18126.2 739.167 18126.5 730.5V450.5C18126.5 442.5 18123.2 435.833 18116.5 430.5C18110.2 424.833 18102.8 422 18094.5 422H18088.5L18088 417H18257.5ZM18159 432V752H18257.5C18285.5 752 18310.2 745.333 18331.5 732C18353.2 718.667 18369.8 700 18381.5 676C18393.5 651.667 18399.5 623.667 18399.5 592C18399.5 544 18386.3 505.333 18360 476C18334 446.667 18299.8 432 18257.5 432H18159ZM18570.3 480C18596 466.667 18624.2 460 18654.8 460C18685.8 460 18714.2 466.667 18739.8 480C18765.5 493 18785.8 511.5 18800.8 535.5C18816.2 559.5 18823.8 586.667 18823.8 617C18823.8 647.333 18816.2 674.5 18800.8 698.5C18785.8 722.5 18765.5 741.167 18739.8 754.5C18714.2 767.5 18687.8 774 18660.8 774C18633.8 774 18610 770.167 18589.3 762.5C18568.7 754.833 18550.7 744.167 18535.3 730.5C18520.3 716.833 18508.3 700.167 18499.3 680.5C18490.7 660.833 18486.3 637.833 18486.3 611.5C18486.3 584.833 18493.8 559.5 18508.8 535.5C18524.2 511.5 18544.7 493 18570.3 480ZM18560.8 719.5C18586.2 745.833 18617.5 759 18654.8 759C18692.2 759 18723.5 745.833 18748.8 719.5C18774.2 692.833 18786.8 658.667 18786.8 617C18786.8 575.333 18774.2 541.333 18748.8 515C18723.5 488.333 18692.2 475 18654.8 475C18617.5 475 18586.2 488.333 18560.8 515C18535.8 541.333 18523.3 575.333 18523.3 617C18523.3 658.667 18535.8 692.833 18560.8 719.5ZM18957.5 480C18983.2 466.667 19011.4 460 19042 460C19073 460 19101.4 466.667 19127 480C19152.7 493 19173 511.5 19188 535.5C19203.4 559.5 19211 586.667 19211 617C19211 647.333 19203.4 674.5 19188 698.5C19173 722.5 19152.7 741.167 19127 754.5C19101.4 767.5 19075 774 19048 774C19021 774 18997.2 770.167 18976.5 762.5C18955.9 754.833 18937.9 744.167 18922.5 730.5C18907.5 716.833 18895.5 700.167 18886.5 680.5C18877.9 660.833 18873.5 637.833 18873.5 611.5C18873.5 584.833 18881 559.5 18896 535.5C18911.4 511.5 18931.9 493 18957.5 480ZM18948 719.5C18973.4 745.833 19004.7 759 19042 759C19079.4 759 19110.7 745.833 19136 719.5C19161.4 692.833 19174 658.667 19174 617C19174 575.333 19161.4 541.333 19136 515C19110.7 488.333 19079.4 475 19042 475C19004.7 475 18973.4 488.333 18948 515C18923 541.333 18910.5 575.333 18910.5 617C18910.5 658.667 18923 692.833 18948 719.5ZM19264.7 750.5C19263.7 746.5 19263.2 738.333 19263.2 726C19263.2 713.667 19265.4 701.167 19269.7 688.5H19275.7C19275.4 691.5 19275.2 694.5 19275.2 697.5C19275.2 715.5 19281.1 730.333 19292.7 742C19304.7 753.333 19321.2 759 19342.2 759C19364.2 759 19381.4 754 19393.7 744C19406.1 733.667 19412.2 720.5 19412.2 704.5C19412.2 688.167 19406.2 674.667 19394.2 664L19294.2 587C19278.2 573.333 19270.2 555 19270.2 532C19270.2 519 19273.7 507 19280.7 496C19288.1 485 19298.1 476.333 19310.7 470C19323.7 463.333 19338.9 460 19356.2 460C19373.6 460 19388.9 461.5 19402.2 464.5H19418.7L19419.7 519H19414.2C19414.2 505 19409.4 494.167 19399.7 486.5C19390.1 478.833 19376.2 475 19358.2 475C19340.2 475 19325.4 479.667 19313.7 489C19302.1 498 19296.2 509.833 19296.2 524.5C19296.2 538.833 19302.7 551.333 19315.7 562L19416.7 640C19432.1 652.667 19439.7 670.333 19439.7 693C19439.7 715.667 19431.1 734.833 19413.7 750.5C19396.7 766.167 19375.9 774 19351.2 774C19334.9 774 19318.6 772 19302.2 768C19285.9 764 19273.4 758.167 19264.7 750.5ZM19627.7 481.5V735.5C19628 745.833 19633 753.5 19642.7 758.5C19647 760.833 19651.9 762 19657.2 762H19662.7V767H19559.7V762H19565.7C19573.7 762 19580.5 759.333 19586.2 754C19591.9 748.667 19594.9 742.333 19595.2 735V481.5H19504.7C19497 481.5 19490.9 484 19486.2 489C19481.9 494 19479.7 500 19479.7 507V515H19474.2V458.5C19480.9 461.167 19490.2 463.167 19502.2 464.5C19514.5 465.833 19523.7 466.5 19529.7 466.5H19692.7C19716.7 466.5 19735.4 463.833 19748.7 458.5V515H19743.2V507C19743.2 500 19740.9 494 19736.2 489C19731.5 484 19725.5 481.5 19718.2 481.5H19627.7Z" fill="white"/>
<path d="M20230.6 5923L20480 5491L20729.4 5923H20230.6Z" stroke="white" stroke-width="45"/>
<path d="M20729.4 5466L20480 5898L20230.6 5466H20729.4Z" stroke="white" stroke-width="45"/>
<path d="M20509.3 3552.5C20507.4 3555.83 20502.6 3555.83 20500.7 3552.5L20220.9 3068C20219 3064.67 20221.4 3060.5 20225.3 3060.5H20784.7C20788.6 3060.5 20791 3064.67 20789.1 3068L20509.3 3552.5Z" stroke="white" stroke-width="45"/>
<rect x="20061" y="6427" width="840" height="840" rx="30" fill="#C4C4C4" fill-opacity="0.1"/>
<path d="M20633 6716.79C20633 6627.93 20565.8 6565 20481.2 6565C20397.5 6565 20329 6627.93 20329 6716.79C20329 6806.07 20397.5 6869 20481.2 6869C20565.4 6869 20633 6806.07 20633 6716.79ZM20390.2 6716.79C20390.2 6656.41 20427.2 6618.57 20481.2 6618.57C20534.8 6618.57 20571.8 6656.41 20571.8 6716.79C20571.8 6777.16 20534.8 6815.85 20481.2 6815.85C20427.2 6815.85 20390.2 6777.16 20390.2 6716.79Z" fill="white"/>
<rect x="20060" y="4117" width="840" height="840" rx="30" fill="#C4C4C4" fill-opacity="0.1"/>
<path d="M20632 4688.79C20632 4599.93 20564.8 4537 20480.2 4537C20396.5 4537 20328 4599.93 20328 4688.79C20328 4778.07 20396.5 4841 20480.2 4841C20564.4 4841 20632 4778.07 20632 4688.79ZM20389.2 4688.79C20389.2 4628.41 20426.2 4590.57 20480.2 4590.57C20533.8 4590.57 20570.8 4628.41 20570.8 4688.79C20570.8 4749.16 20533.8 4787.85 20480.2 4787.85C20426.2 4787.85 20389.2 4749.16 20389.2 4688.79Z" fill="white"/>
<path d="M20480 4415.79C20480 4326.93 20412.8 4264 20328.2 4264C20244.5 4264 20176 4326.93 20176 4415.79C20176 4505.07 20244.5 4568 20328.2 4568C20412.4 4568 20480 4505.07 20480 4415.79ZM20237.2 4415.79C20237.2 4355.41 20274.2 4317.57 20328.2 4317.57C20381.8 4317.57 20418.8 4355.41 20418.8 4415.79C20418.8 4476.16 20381.8 4514.85 20328.2 4514.85C20274.2 4514.85 20237.2 4476.16 20237.2 4415.79Z" fill="white"/>
<path d="M20784 4415.79C20784 4326.93 20716.8 4264 20632.2 4264C20548.5 4264 20480 4326.93 20480 4415.79C20480 4505.07 20548.5 4568 20632.2 4568C20716.4 4568 20784 4505.07 20784 4415.79ZM20541.2 4415.79C20541.2 4355.41 20578.2 4317.57 20632.2 4317.57C20685.8 4317.57 20722.8 4355.41 20722.8 4415.79C20722.8 4476.16 20685.8 4514.85 20632.2 4514.85C20578.2 4514.85 20541.2 4476.16 20541.2 4415.79Z" fill="white"/>
<path d="M18835.8 3310V3073.87H18916.8V3043.4H18720.9V3073.87H18802V3310H18835.8ZM18959.7 3310V3100.04H18925.7V3310H18959.7ZM19138.7 3282.85H19034V3216.45H19132.7V3189.69H19034V3127.19H19138.7V3100.04H19000.3V3310H19138.7V3282.85ZM19255.8 3100.04H19171.7V3310H19205.5V3228.36H19255.3L19296.1 3310H19334.6L19288.9 3222.7C19307.8 3216.05 19330.5 3198.48 19330.5 3164.1C19330.5 3129.73 19307.2 3100.04 19255.8 3100.04ZM19205.5 3201.8V3126.8H19251.4C19277.7 3126.8 19295.3 3139.88 19295.3 3165.27C19295.3 3188.91 19279.5 3201.8 19250.2 3201.8H19205.5ZM19511.7 3310V3043.4H19480.1C19459.4 3054.53 19434.6 3069.18 19414.5 3083.63V3118.4C19433.2 3105.51 19462.9 3087.34 19477.4 3079.53H19478V3310H19511.7ZM19549.2 3187.34C19549.2 3265.66 19582.4 3315.66 19643.1 3315.66C19704.2 3315.66 19736.9 3265.27 19736.9 3187.34V3166.64C19736.9 3087.93 19704 3037.73 19643.3 3037.73C19582.6 3037.73 19549.2 3088.12 19549.2 3166.64V3187.34ZM19583 3166.84C19583 3103.75 19605.8 3067.62 19643.1 3067.62C19680.2 3067.62 19703.1 3103.75 19703.1 3166.84V3186.95C19703.1 3250.04 19680.2 3285.78 19643.1 3285.78C19605.8 3285.78 19583 3250.04 19583 3186.95V3166.84ZM18276.3 3640L18348.3 3440.05H18319.3L18263.8 3607.04H18262.9L18207.1 3440.05H18178L18249.9 3640H18276.3ZM18349.8 3640L18365.6 3594.88H18426.4L18442 3640H18469.4L18410.5 3482.53H18383L18324 3640H18349.8ZM18396.6 3508.46L18420.4 3576.43H18371.9L18395.6 3508.46H18396.6ZM18508.6 3640V3482.53H18483.1V3640H18508.6ZM18563.6 3640V3522.96H18564.8L18646.1 3640H18669.3V3482.53H18644.5V3599.42H18643.5L18562.2 3482.53H18539V3640H18563.6ZM18825.9 3531.31C18824.3 3504.21 18802.9 3479.45 18762.2 3479.45C18720 3479.45 18693.1 3505.97 18693.1 3550.21V3571.45C18693.1 3614.51 18715.5 3643.22 18761.6 3643.22C18810.3 3643.22 18826.2 3611.14 18826.2 3589.17V3556.94H18761V3576.72H18801.8V3589.9C18801.8 3608.8 18785.4 3622.42 18761.5 3622.42C18732.6 3622.42 18718.7 3602.65 18718.7 3571.3V3550.5C18718.7 3515.05 18738.1 3500.11 18761.8 3500.11C18781.3 3500.11 18798.1 3510.21 18800.9 3531.31H18825.9ZM18951.4 3619.49H18875.5V3482.53H18850.1V3640H18951.4V3619.49ZM18953.4 3573.2C18953.4 3617.59 18979.9 3643.22 19022.3 3643.22C19064.7 3643.22 19091.7 3617.59 19091.7 3573.2V3550.94C19091.7 3506.41 19065.2 3479.45 19022.7 3479.45C18980.5 3479.45 18953.4 3506.11 18953.4 3550.94V3573.2ZM18979 3550.79C18979 3517.25 18997.7 3500.11 19022.4 3500.11C19047.3 3500.11 19065.9 3517.25 19065.9 3550.79V3573.2C19065.9 3606.89 19047.3 3622.57 19022.4 3622.57C18997.7 3622.57 18979 3606.89 18979 3573.2V3550.79ZM19178.5 3482.53H19115.4V3640H19140.7V3578.77H19178.1L19208.7 3640H19237.5L19203.3 3574.52C19217.5 3569.54 19234.5 3556.36 19234.5 3530.58C19234.5 3504.79 19217 3482.53 19178.5 3482.53ZM19140.7 3558.85V3502.6H19175.1C19194.9 3502.6 19208.1 3512.41 19208.1 3531.46C19208.1 3549.18 19196.2 3558.85 19174.3 3558.85H19140.7ZM19284.3 3640V3482.53H19258.9V3640H19284.3ZM19308 3573.2C19308 3617.59 19334.5 3643.22 19376.9 3643.22C19419.3 3643.22 19446.3 3617.59 19446.3 3573.2V3550.94C19446.3 3506.41 19419.8 3479.45 19377.3 3479.45C19335.1 3479.45 19308 3506.11 19308 3550.94V3573.2ZM19333.7 3550.79C19333.7 3517.25 19352.3 3500.11 19377 3500.11C19401.9 3500.11 19420.5 3517.25 19420.5 3550.79V3573.2C19420.5 3606.89 19401.9 3622.57 19377 3622.57C19352.3 3622.57 19333.7 3606.89 19333.7 3573.2V3550.79ZM19493.3 3482.53H19467.9V3584.92C19467.9 3619.79 19494.1 3643.22 19533.5 3643.22C19572.7 3643.22 19598.9 3620.22 19598.9 3585.36V3482.53H19573.5V3584.19C19573.5 3607.63 19557.7 3622.28 19533.5 3622.28C19509.1 3622.28 19493.3 3607.77 19493.3 3584.19V3482.53ZM19615.2 3596.79C19615.8 3617.73 19631.3 3643.22 19677.6 3643.22C19714.5 3643.22 19741.9 3626.23 19741.9 3595.47C19741.9 3569.1 19723.2 3557.97 19697.4 3552.11L19669.3 3545.37C19653.3 3541.86 19645.7 3534.09 19645.7 3523.4C19645.7 3507.87 19659.6 3499.38 19679.5 3499.38C19702.2 3499.38 19713.8 3510.51 19715.1 3524.42H19739.7C19739.2 3494.69 19711.2 3479.01 19680 3479.01C19648.3 3479.01 19619.9 3495.27 19619.9 3525.16C19619.9 3550.35 19639.5 3562.36 19660.5 3567.05L19689.1 3573.79C19707.5 3578.04 19716.2 3584.92 19716.2 3597.37C19716.2 3613.05 19702.2 3622.71 19679.8 3622.71C19655.1 3622.71 19641.7 3611 19640.4 3596.79H19615.2Z" fill="white"/>
<path d="M17283.4 4500V4263.87H17364.5V4233.4H17168.6V4263.87H17249.6V4500H17283.4ZM17511.9 4472.85H17407.2V4406.45H17505.8V4379.69H17407.2V4317.19H17511.9V4290.04H17373.4V4500H17511.9V4472.85ZM17556.7 4500L17577.8 4439.84H17658.9L17679.8 4500H17716.3L17637.8 4290.04H17601L17522.3 4500H17556.7ZM17619.2 4324.61L17650.8 4415.23H17586.2L17617.8 4324.61H17619.2ZM17765.8 4500V4350.98H17767.6L17827.7 4479.49H17853.5L17913.5 4350.98H17915V4500H17945.9V4290.04H17912.1L17841.2 4444.53H17840L17769.1 4290.04H17735.3V4500H17765.8ZM17985.1 4342.19C17985.1 4354.69 17995.2 4364.84 18007.7 4364.84C18020 4364.84 18030.2 4354.69 18030.2 4342.19C18030.2 4329.88 18020 4319.73 18007.7 4319.73C17995.2 4319.73 17985.1 4329.88 17985.1 4342.19ZM17985.1 4481.25C17985.1 4493.55 17995.2 4503.71 18007.7 4503.71C18020 4503.71 18030.2 4493.55 18030.2 4481.25C18030.2 4468.75 18020 4458.59 18007.7 4458.59C17995.2 4458.59 17985.1 4468.75 17985.1 4481.25ZM18411.9 4469.53H18285.9V4378.71H18404.9V4349.02H18285.9V4263.87H18411.9V4233.4H18251.9V4500H18411.9V4469.53ZM18537.4 4500L18616.7 4290.04H18578.2L18520.2 4463.67H18518.3L18459.9 4290.04H18421L18500.1 4500H18537.4ZM18667.6 4500V4290.04H18633.6V4500H18667.6ZM18843.3 4472.66H18742.1V4290.04H18708.1V4500H18843.3V4472.66ZM18946.9 4350C18946.9 4291.41 18972.2 4258.4 19017.8 4258.4C19055.3 4258.4 19081 4282.81 19082 4318.36H19115.6V4317.77C19115.6 4265.43 19074.4 4227.73 19017.6 4227.73C18951.5 4227.73 18912.9 4273.44 18912.9 4350V4384.96C18912.9 4460.74 18951.5 4505.66 19017.6 4505.66C19074 4505.66 19115.6 4469.53 19115.6 4420.31V4419.53H19082C19081 4452.54 19055.3 4475 19017.8 4475C18972.2 4475 18946.9 4442.58 18946.9 4384.96V4350ZM19155 4500L19176.1 4439.84H19257.1L19278 4500H19314.6L19236 4290.04H19199.3L19120.6 4500H19155ZM19217.5 4324.61L19249.1 4415.23H19184.5L19216.1 4324.61H19217.5ZM19364.1 4500V4350.98H19365.8L19426 4479.49H19451.8L19511.7 4350.98H19513.3V4500H19544.2V4290.04H19510.4L19439.5 4444.53H19438.3L19367.4 4290.04H19333.6V4500H19364.1ZM19585.5 4290.04V4500H19619.5V4423.83H19670.1C19714.8 4423.83 19743.3 4396.48 19743.3 4357.03C19743.3 4317.97 19714.8 4290.04 19670.3 4290.04H19585.5ZM19619.3 4316.99H19666C19692.7 4316.99 19708.5 4331.64 19708.5 4357.03C19708.5 4389.45 19687.2 4397.07 19651.1 4397.07H19619.3V4316.99Z" fill="white"/>
<path d="M15503 5412.65C15499.4 5360.89 15460.6 5325.73 15403.7 5325.73C15337.5 5325.73 15297.9 5370.27 15297.9 5442.92V5482.38C15297.9 5559.72 15335.2 5603.66 15404.5 5603.66C15462.3 5603.66 15503.5 5564.99 15503.5 5514.02V5459.13H15401.6V5488.82H15470.3V5514.6C15470.3 5549.17 15443.8 5573 15404.7 5573C15357.2 5573 15331.9 5540.19 15331.9 5482.38V5442.92C15331.9 5388.43 15358.4 5356.4 15403.7 5356.4C15440.6 5356.4 15464.9 5377.49 15469.2 5412.65H15503ZM15566.5 5388.04H15532.8V5524.56C15532.8 5571.05 15567.7 5602.3 15620.3 5602.3C15672.4 5602.3 15707.4 5571.63 15707.4 5525.15V5388.04H15673.6V5523.59C15673.6 5554.84 15652.5 5574.37 15620.3 5574.37C15587.6 5574.37 15566.5 5555.03 15566.5 5523.59V5388.04ZM15779.2 5598V5388.04H15745.2V5598H15779.2ZM15954.9 5570.66H15853.7V5388.04H15819.7V5598H15954.9V5570.66ZM15973.1 5388.04V5598H16048.7C16122.2 5598 16148.3 5553.27 16148.3 5492.92C16148.3 5431.59 16121.2 5388.04 16048.7 5388.04H15973.1ZM16007.1 5415.19H16045.6C16095.2 5415.19 16113.2 5446.44 16113.2 5493.31C16113.2 5545.46 16091.3 5570.85 16045.6 5570.85H16007.1V5415.19ZM16174.8 5440.19C16174.8 5452.69 16185 5462.84 16197.5 5462.84C16209.8 5462.84 16219.9 5452.69 16219.9 5440.19C16219.9 5427.88 16209.8 5417.73 16197.5 5417.73C16185 5417.73 16174.8 5427.88 16174.8 5440.19ZM16174.8 5579.25C16174.8 5591.55 16185 5601.71 16197.5 5601.71C16209.8 5601.71 16219.9 5591.55 16219.9 5579.25C16219.9 5566.75 16209.8 5556.59 16197.5 5556.59C16185 5556.59 16174.8 5566.75 16174.8 5579.25ZM16301.4 5526.12C16302.4 5560.7 16326.8 5603.66 16397.5 5603.66C16453 5603.66 16496.9 5576.32 16496.9 5523.78C16496.9 5481.01 16468.6 5462.06 16427.6 5451.32L16381.5 5439.02C16355.9 5432.57 16344 5418.51 16344 5399.56C16344 5371.05 16368 5355.23 16401 5355.23C16438.3 5355.23 16457.9 5375.34 16460.2 5400.93H16494C16492.8 5349.17 16447.1 5325.15 16401.8 5325.15C16354 5325.15 16309.4 5351.91 16309.4 5401.91C16309.4 5443.51 16340.1 5463.62 16371.7 5471.83L16418.6 5484.13C16448.3 5491.75 16462.2 5504.25 16462.2 5526.32C16462.2 5555.42 16438.3 5573.39 16401.2 5573.39C16360.2 5573.39 16338.1 5551.91 16335.6 5526.12H16301.4ZM16556.6 5388.04H16522.8V5524.56C16522.8 5571.05 16557.8 5602.3 16610.3 5602.3C16662.5 5602.3 16697.4 5571.63 16697.4 5525.15V5388.04H16663.7V5523.59C16663.7 5554.84 16642.6 5574.37 16610.3 5574.37C16577.7 5574.37 16556.6 5555.03 16556.6 5523.59V5388.04ZM16735.3 5388.04V5598H16769.2V5521.83H16819.8C16864.6 5521.83 16893.1 5494.48 16893.1 5455.03C16893.1 5415.97 16864.6 5388.04 16820 5388.04H16735.3ZM16769 5414.99H16815.7C16842.5 5414.99 16858.3 5429.64 16858.3 5455.03C16858.3 5487.45 16837 5495.07 16800.9 5495.07H16769V5414.99ZM17054.5 5570.85H16949.8V5504.45H17048.5V5477.69H16949.8V5415.19H17054.5V5388.04H16916V5598H17054.5V5570.85ZM17171.6 5388.04H17087.4V5598H17121.2V5516.36H17171L17211.9 5598H17250.3L17204.6 5510.7C17223.6 5504.05 17246.2 5486.48 17246.2 5452.1C17246.2 5417.73 17223 5388.04 17171.6 5388.04ZM17121.2 5489.8V5414.8H17167.1C17193.5 5414.8 17211.1 5427.88 17211.1 5453.27C17211.1 5476.91 17195.3 5489.8 17166 5489.8H17121.2ZM17500.6 5567.53H17374.6V5476.71H17493.5V5447.02H17374.6V5361.87H17500.6V5331.4H17340.6V5598H17500.6V5567.53ZM17626.1 5598L17705.4 5388.04H17666.9L17608.9 5561.67H17606.9L17548.5 5388.04H17509.7L17588.8 5598H17626.1ZM17756.3 5598V5388.04H17722.3V5598H17756.3ZM17932 5570.66H17830.8V5388.04H17796.8V5598H17932V5570.66ZM18043.9 5598V5404.25H18044.9L18120.3 5575.73H18149.2L18224.6 5404.25H18225.8V5598H18256.6V5331.4H18223.4L18135.3 5537.45H18134.6L18046.3 5331.4H18013.1V5598H18043.9ZM18438.6 5570.85H18333.9V5504.45H18432.5V5477.69H18333.9V5415.19H18438.6V5388.04H18300.1V5598H18438.6V5570.85ZM18639.7 5453.08C18637.5 5416.95 18609 5383.94 18554.7 5383.94C18498.5 5383.94 18462.5 5419.29 18462.5 5478.27V5506.59C18462.5 5564.02 18492.4 5602.3 18553.9 5602.3C18618.8 5602.3 18640.1 5559.52 18640.1 5530.23V5487.26H18553.1V5513.62H18607.4V5531.2C18607.4 5556.4 18585.6 5574.56 18553.7 5574.56C18515.3 5574.56 18496.7 5548.2 18496.7 5506.4V5478.66C18496.7 5431.4 18522.5 5411.48 18554.1 5411.48C18580.1 5411.48 18602.6 5424.95 18606.3 5453.08H18639.7ZM18683.7 5598L18704.8 5537.84H18785.9L18806.8 5598H18843.3L18764.8 5388.04H18728.1L18649.4 5598H18683.7ZM18746.2 5422.61L18777.9 5513.23H18713.2L18744.9 5422.61H18746.2ZM18946.9 5448C18946.9 5389.41 18972.2 5356.4 19017.8 5356.4C19055.3 5356.4 19081 5380.81 19082 5416.36H19115.6V5415.77C19115.6 5363.43 19074.4 5325.73 19017.6 5325.73C18951.5 5325.73 18912.9 5371.44 18912.9 5448V5482.96C18912.9 5558.74 18951.5 5603.66 19017.6 5603.66C19074 5603.66 19115.6 5567.53 19115.6 5518.31V5517.53H19082C19081 5550.54 19055.3 5573 19017.8 5573C18972.2 5573 18946.9 5540.58 18946.9 5482.96V5448ZM19155 5598L19176.1 5537.84H19257.1L19278 5598H19314.6L19236 5388.04H19199.3L19120.6 5598H19155ZM19217.5 5422.61L19249.1 5513.23H19184.5L19216.1 5422.61H19217.5ZM19364.1 5598V5448.98H19365.8L19426 5577.49H19451.8L19511.7 5448.98H19513.3V5598H19544.2V5388.04H19510.4L19439.5 5542.53H19438.3L19367.4 5388.04H19333.6V5598H19364.1ZM19585.5 5388.04V5598H19619.5V5521.83H19670.1C19714.8 5521.83 19743.3 5494.48 19743.3 5455.03C19743.3 5415.97 19714.8 5388.04 19670.3 5388.04H19585.5ZM19619.3 5414.99H19666C19692.7 5414.99 19708.5 5429.64 19708.5 5455.03C19708.5 5487.45 19687.2 5495.07 19651.1 5495.07H19619.3V5414.99ZM17177 5787.5V6043.26H17242.2V6023.34H17201V5807.42H17242.2V5787.5H17177ZM17241.9 5944.09C17242.7 5970.02 17261 6002.25 17314 6002.25C17355.6 6002.25 17388.6 5981.74 17388.6 5942.34C17388.6 5910.26 17367.3 5896.05 17336.6 5887.99L17302 5878.76C17282.8 5873.93 17273.9 5863.38 17273.9 5849.17C17273.9 5827.79 17291.9 5815.92 17316.7 5815.92C17344.6 5815.92 17359.3 5831.01 17361 5850.2H17386.4C17385.5 5811.38 17351.2 5793.36 17317.2 5793.36C17281.4 5793.36 17248 5813.43 17248 5850.93C17248 5882.13 17271 5897.22 17294.7 5903.37L17329.8 5912.6C17352.1 5918.31 17362.5 5927.69 17362.5 5944.24C17362.5 5966.07 17344.6 5979.54 17316.8 5979.54C17286 5979.54 17269.5 5963.43 17267.6 5944.09H17241.9ZM17531.3 5975.15H17436.9V5907.03H17526.1V5884.77H17436.9V5820.9H17531.3V5798.05H17411.4V5998H17531.3V5975.15ZM17581.1 5998V5852.69H17581.8L17638.4 5981.3H17660L17716.6 5852.69H17717.5V5998H17740.6V5798.05H17715.7L17649.6 5952.59H17649.1L17582.8 5798.05H17557.9V5998H17581.1ZM17792.1 5885.5C17792.1 5841.55 17811.2 5816.8 17845.3 5816.8C17873.4 5816.8 17892.7 5835.11 17893.5 5861.77H17918.7V5861.33C17918.7 5822.07 17887.8 5793.8 17845.1 5793.8C17795.6 5793.8 17766.6 5828.08 17766.6 5885.5V5911.72C17766.6 5968.56 17795.6 6002.25 17845.1 6002.25C17887.5 6002.25 17918.7 5975.15 17918.7 5938.23V5937.65H17893.5C17892.7 5962.4 17873.4 5979.25 17845.3 5979.25C17811.2 5979.25 17792.1 5954.93 17792.1 5911.72V5885.5ZM17924 5787.5V5807.42H17965.5V6023.34H17924V6043.26H17989.4V5787.5H17924ZM18152.8 5913.77C18152.8 5970.31 18184.1 6002.25 18232.6 6002.25C18281.2 6002.25 18313 5970.31 18313 5913.77V5884.33C18313 5827.49 18281.7 5793.8 18233.2 5793.8C18184.7 5793.8 18152.8 5827.49 18152.8 5884.33V5913.77ZM18178.4 5884.18C18178.4 5839.5 18202.1 5816.8 18232.9 5816.8C18263.8 5816.8 18287.4 5839.5 18287.4 5884.18V5913.77C18287.4 5958.6 18263.8 5979.25 18232.9 5979.25C18202.1 5979.25 18178.4 5958.6 18178.4 5913.77V5884.18ZM18364.4 5998V5880.96H18365.5L18446.8 5998H18470V5840.53H18445.2V5957.42H18444.2L18362.9 5840.53H18339.8V5998H18364.4ZM18601.9 5977.49H18526V5840.53H18500.5V5998H18601.9V5977.49ZM18641.1 5998V5840.53H18615.6V5998H18641.1ZM18696.1 5998V5880.96H18697.3L18778.6 5998H18801.7V5840.53H18777V5957.42H18776L18694.7 5840.53H18671.5V5998H18696.1ZM18936.2 5977.64H18857.6V5927.83H18931.6V5907.77H18857.6V5860.89H18936.2V5840.53H18832.3V5998H18936.2V5977.64ZM18959.2 5879.64C18959.2 5889.02 18966.9 5896.63 18976.2 5896.63C18985.5 5896.63 18993.1 5889.02 18993.1 5879.64C18993.1 5870.41 18985.5 5862.79 18976.2 5862.79C18966.9 5862.79 18959.2 5870.41 18959.2 5879.64ZM18959.2 5983.94C18959.2 5993.17 18966.9 6000.78 18976.2 6000.78C18985.5 6000.78 18993.1 5993.17 18993.1 5983.94C18993.1 5974.56 18985.5 5966.95 18976.2 5966.95C18966.9 5966.95 18959.2 5974.56 18959.2 5983.94ZM19179.5 5998V5798.05H19155.8C19140.3 5806.4 19121.7 5817.38 19106.6 5828.22V5854.3C19120.6 5844.63 19142.9 5831.01 19153.7 5825.15H19154.2V5998H19179.5ZM19342.2 5844.48C19340.2 5820.31 19318.6 5794.24 19281.7 5794.24C19238.4 5794.24 19206.7 5830.42 19206.7 5905.71C19206.7 5938.53 19214 5962.7 19226.6 5978.52C19239.4 5994.34 19257.4 6002.1 19278.8 6002.1C19317 6002.1 19347.6 5976.76 19347.6 5933.55C19347.6 5891.21 19314.8 5867.92 19282.2 5867.92C19256.5 5867.92 19237.9 5882.72 19232.1 5897.51H19231.6C19233.2 5840.09 19255.1 5816.21 19280.7 5816.21C19304 5816.21 19315.6 5833.06 19316.6 5844.48H19342.2ZM19235.3 5935.16C19235.3 5905.71 19255.8 5889.89 19278.9 5889.89C19300.6 5889.89 19322.4 5904.4 19322.4 5935.01C19322.4 5965.92 19301.2 5979.98 19279.2 5979.98C19256.4 5979.98 19235.3 5964.75 19235.3 5935.16ZM19369.1 6043.26L19441.2 5787.5H19417.9L19345.8 6043.26H19369.1ZM19447.7 5947.76C19449.8 5976.76 19472.3 6002.25 19513.6 6002.25C19554.3 6002.25 19585.6 5973.98 19585.6 5932.81C19585.6 5892.68 19555.4 5865.72 19519.5 5865.72C19498.1 5865.72 19481.4 5875.98 19476.4 5882.86H19476L19482.6 5820.17H19570.6V5797.76H19461L19450.1 5914.06H19471.7C19477.6 5901.03 19490.9 5887.4 19515.7 5887.4C19539.8 5887.4 19559.8 5904.98 19559.8 5933.55C19559.8 5964.02 19535.7 5980.13 19515.2 5980.13C19492.2 5980.13 19475.5 5968.85 19472.3 5947.76H19447.7ZM19600.9 5906.01C19600.9 5964.75 19625.8 6002.25 19671.3 6002.25C19717.2 6002.25 19741.6 5964.46 19741.6 5906.01V5890.48C19741.6 5831.45 19717 5793.8 19671.5 5793.8C19625.9 5793.8 19600.9 5831.59 19600.9 5890.48V5906.01ZM19626.2 5890.63C19626.2 5843.31 19643.4 5816.21 19671.3 5816.21C19699.2 5816.21 19716.3 5843.31 19716.3 5890.63V5905.71C19716.3 5953.03 19699.2 5979.84 19671.3 5979.84C19643.4 5979.84 19626.2 5953.03 19626.2 5905.71V5890.63Z" fill="white"/>
<rect x="20290" y="6851" width="381" height="256" rx="25" stroke="white" stroke-width="50"/>
<rect x="20060" y="7540" width="840" height="840" rx="30" fill="#C4C4C4" fill-opacity="0.1"/>
<rect x="15805" y="10758" width="5562" height="2832" rx="30" fill="#C4C4C4" fill-opacity="0.1"/>
<rect x="20231" y="7747" width="497" height="340" rx="25" stroke="white" stroke-width="50"/>
<path d="M19144 6660C19144 6643.43 19157.4 6630 19174 6630H19737.8C19754.4 6630 19767.8 6643.43 19767.8 6660V6846.23C19767.8 6851.83 19769.4 6857.31 19772.3 6862.06L19806.5 6917.17C19819 6937.16 19804.6 6963 19781.1 6963H19174C19157.4 6963 19144 6949.57 19144 6933V6660Z" fill="#C4C4C4" fill-opacity="0.1"/>
<path d="M19320 6818C19311.3 6818 19304 6815 19298 6809C19292 6803 19289 6795.67 19289 6787C19289 6778.33 19292 6771 19298 6765C19304 6759 19311.3 6756 19320 6756C19328.3 6756 19335.3 6759 19341 6765C19347 6771 19350 6778.33 19350 6787C19350 6795.67 19347 6803 19341 6809C19335.3 6815 19328.3 6818 19320 6818ZM19440 6818C19431.3 6818 19424 6815 19418 6809C19412 6803 19409 6795.67 19409 6787C19409 6778.33 19412 6771 19418 6765C19424 6759 19431.3 6756 19440 6756C19448.3 6756 19455.3 6759 19461 6765C19467 6771 19470 6778.33 19470 6787C19470 6795.67 19467 6803 19461 6809C19455.3 6815 19448.3 6818 19440 6818ZM19560 6818C19551.3 6818 19544 6815 19538 6809C19532 6803 19529 6795.67 19529 6787C19529 6778.33 19532 6771 19538 6765C19544 6759 19551.3 6756 19560 6756C19568.3 6756 19575.3 6759 19581 6765C19587 6771 19590 6778.33 19590 6787C19590 6795.67 19587 6803 19581 6809C19575.3 6815 19568.3 6818 19560 6818Z" fill="white"/>
<rect x="20357" y="8110" width="245" height="113" fill="white"/>
<path d="M20921.7 11217H20955.7L21001.2 11152.7H21002.7L21048 11217H21084.3L21022.2 11127.6L21084.9 11038.3H21049.7L21005.2 11104.2H21003.6L20959.2 11038.3H20922L20982.9 11127.1L20921.7 11217Z" fill="white"/>
<path d="M16189.5 11315V11160.6H16190.7L16298.7 11315H16322.6V11117.7H16298.3V11272.6H16297.1L16189.1 11117.7H16165.1V11315H16189.5ZM16427.4 11317.5C16466.6 11317.5 16493.1 11289.2 16493.1 11243.9C16493.1 11198.5 16466.6 11170.4 16427.4 11170.4C16388 11170.4 16361.5 11198.5 16361.5 11243.9C16361.5 11289.2 16388 11317.5 16427.4 11317.5ZM16427.4 11296.5C16402.2 11296.5 16385.7 11277.4 16385.7 11243.9C16385.7 11210.4 16402.2 11191.3 16427.4 11191.3C16452.5 11191.3 16468.9 11210.4 16468.9 11243.9C16468.9 11277.4 16452.5 11296.5 16427.4 11296.5ZM16536 11138.5V11172.8H16514.8V11192.4H16536V11278.1C16536 11305.4 16546.2 11316.1 16572.3 11316.1C16577.9 11316.1 16584.4 11315.7 16587.3 11315V11295C16585.7 11295.3 16580.2 11295.7 16577.5 11295.7C16565.3 11295.7 16559.8 11289.8 16559.8 11276.9V11192.4H16587.4V11172.8H16559.8V11138.5H16536ZM16637.2 11147.5C16645.5 11147.5 16652.1 11140.8 16652.1 11132.6C16652.1 11124.3 16645.5 11117.7 16637.2 11117.7C16629 11117.7 16622.3 11124.3 16622.3 11132.6C16622.3 11140.8 16629 11147.5 16637.2 11147.5ZM16625.3 11315H16649.1V11172.8H16625.3V11315ZM16700.1 11315H16723.9V11192.4H16752.9V11172.8H16723.7V11157.1C16723.7 11143 16729.9 11136.2 16742.7 11136.2C16746.7 11136.2 16750.7 11136.6 16753.5 11137V11117.7C16750.1 11117.2 16744.4 11116.6 16739 11116.6C16712.8 11116.6 16700.1 11129.6 16700.1 11157V11172.8H16680.3V11192.4H16700.1V11315ZM16801.8 11147.5C16810.1 11147.5 16816.7 11140.8 16816.7 11132.6C16816.7 11124.3 16810.1 11117.7 16801.8 11117.7C16793.6 11117.7 16786.9 11124.3 16786.9 11132.6C16786.9 11140.8 16793.6 11147.5 16801.8 11147.5ZM16789.9 11315H16813.7V11172.8H16789.9V11315ZM16975.1 11219.4C16972.1 11193.9 16950.9 11170.4 16915.4 11170.4C16876.1 11170.4 16850 11199.1 16850 11243.9C16850 11289.7 16876.3 11317.5 16915.7 11317.5C16947.9 11317.5 16971.7 11297.5 16975.4 11269.2H16952C16947.9 11286.3 16935.2 11296.5 16915.8 11296.5C16891.2 11296.5 16874.2 11277 16874.2 11243.9C16874.2 11211.6 16890.9 11191.3 16915.5 11191.3C16936.4 11191.3 16948.5 11204 16951.9 11219.4H16975.1ZM17050 11317.5C17069.2 11317.5 17087.2 11306.8 17095.7 11290.5H17096.3V11315H17118.8V11216.7C17118.8 11188.4 17097.8 11170.4 17064.4 11170.4C17030.8 11170.4 17009.7 11189.2 17008.1 11213.8H17031C17034 11199.9 17045.5 11191.3 17063.9 11191.3C17083.5 11191.3 17095 11201.7 17095 11219V11230.9L17054.3 11233.2C17021.5 11235.2 17002.7 11250.5 17002.7 11274.8C17002.7 11300.4 17021.7 11317.5 17050 11317.5ZM17055.4 11297.2C17038.3 11297.2 17026.9 11288.3 17026.9 11274.8C17026.9 11261.4 17037.9 11252.9 17057 11251.7L17095 11249.4V11261C17095 11281.5 17077.8 11297.2 17055.4 11297.2ZM17167.9 11138.5V11172.8H17146.7V11192.4H17167.9V11278.1C17167.9 11305.4 17178 11316.1 17204.1 11316.1C17209.7 11316.1 17216.3 11315.7 17219.2 11315V11295C17217.5 11295.3 17212 11295.7 17209.3 11295.7C17197.1 11295.7 17191.7 11289.8 17191.7 11276.9V11192.4H17219.3V11172.8H17191.7V11138.5H17167.9ZM17269 11147.5C17277.4 11147.5 17283.9 11140.8 17283.9 11132.6C17283.9 11124.3 17277.4 11117.7 17269 11117.7C17260.8 11117.7 17254.1 11124.3 17254.1 11132.6C17254.1 11140.8 17260.8 11147.5 17269 11147.5ZM17257.2 11315H17280.9V11172.8H17257.2V11315ZM17383.2 11317.5C17422.4 11317.5 17449 11289.2 17449 11243.9C17449 11198.5 17422.4 11170.4 17383.2 11170.4C17343.8 11170.4 17317.3 11198.5 17317.3 11243.9C17317.3 11289.2 17343.8 11317.5 17383.2 11317.5ZM17383.2 11296.5C17358 11296.5 17341.5 11277.4 17341.5 11243.9C17341.5 11210.4 17358 11191.3 17383.2 11191.3C17408.4 11191.3 17424.8 11210.4 17424.8 11243.9C17424.8 11277.4 17408.4 11296.5 17383.2 11296.5ZM17484.2 11315H17508V11231.3C17508 11207.3 17522.6 11191.4 17545.1 11191.4C17566.9 11191.4 17577.7 11204 17577.7 11227V11315H17601.5V11222.7C17601.5 11190.4 17583.5 11170.4 17552.3 11170.4C17530.3 11170.4 17515.1 11180.2 17507.2 11195.5H17506.6V11172.8H17484.2V11315Z" fill="white"/>
<path d="M16425.3 12071.2H16317.9V11864.7H16288V12098H16425.3V12071.2ZM16498.7 11990.7H16522.5C16555 11990.7 16574.1 12007.6 16574.5 12033.1C16574.8 12058.7 16556 12077.3 16522.7 12077.3C16491.4 12077.3 16476.5 12059.5 16473.5 12037.7H16445.4C16446.8 12073.4 16471.6 12103.1 16521.6 12103.1C16570.2 12103.1 16605.6 12073.2 16604.7 12033.2C16603.8 11995.3 16573.6 11978.4 16553.8 11976.7V11976.1C16571.9 11973.2 16597 11952.4 16596.2 11919.2C16595.1 11885.7 16566.4 11859.8 16522.7 11859.8C16475.5 11859.8 16451.9 11892.4 16451.2 11923H16479.8C16481.3 11905.6 16493.3 11885.4 16522.7 11885.4C16549 11885.4 16565.7 11901.3 16565.9 11924.2C16566.1 11948 16547.6 11964.7 16521.1 11964.7H16498.7V11990.7ZM16640.8 11999.7C16640.8 12065.7 16677.3 12103 16733.9 12103C16790.6 12103 16827.7 12065.7 16827.7 11999.7V11965.4C16827.7 11899.1 16791.2 11859.8 16734.6 11859.8C16678 11859.8 16640.8 11899.1 16640.8 11965.4V11999.7ZM16670.7 11965.2C16670.7 11913.1 16698.4 11886.6 16734.2 11886.6C16770.3 11886.6 16797.8 11913.1 16797.8 11965.2V11999.7C16797.8 12052 16770.3 12076.1 16734.2 12076.1C16698.4 12076.1 16670.7 12052 16670.7 11999.7V11965.2ZM16903.1 12098V11915.7H16903.8L17022.4 12098H17051.1V11864.7H17022.5V12046.9H17021.9L16903.3 11864.7H16874.6V12098H16903.1ZM17393.7 11918.4H17364L17331 12060.4H17329.7L17289 11918.4H17261L17220.4 12060.4H17219.1L17186.1 11918.4H17156.4L17203.2 12098H17233.8L17274.6 11959.6H17275.3L17316.3 12098H17346.7L17393.7 11918.4ZM17526.7 12075.6H17527.6V12098H17555.8V11974.1C17555.8 11936.3 17527.9 11915.5 17489.6 11915.5C17446.2 11915.5 17424.8 11938.4 17423 11969.8H17450.6C17452.4 11951.9 17465.5 11940.1 17488.6 11940.1C17512.9 11940.1 17526.5 11953.1 17526.5 11976.7V11994.9H17479.2C17438 11995.1 17416.1 12014.9 17416.1 12046.4C17416.1 12079.4 17440.1 12100.9 17474.7 12100.9C17501.2 12100.9 17517.6 12090.1 17526.7 12075.6ZM17482.6 12076.5C17463.8 12076.5 17446.2 12066.6 17446.2 12045.4C17446.2 12029.1 17456.8 12017.5 17481.4 12017.5H17526.5V12038.4C17526.5 12060.7 17507.7 12076.5 17482.6 12076.5ZM17606.5 12098H17635.9V11988.6C17635.9 11964 17649.2 11942.1 17680.2 11942.1C17706.3 11942.1 17724.1 11957.5 17724.1 11987.8V12098H17753.5V11982.8C17753.5 11939.1 17726 11915.5 17689.1 11915.5C17659.8 11915.5 17643.3 11930.7 17636.6 11942.1H17635.7V11918.4H17606.5V12098ZM17814 11918.4H17789.7V11943H17813.8V12047.8C17813.8 12083.1 17822.5 12099.5 17865.1 12099.5C17871.2 12099.5 17877.4 12098.9 17879.9 12098.3V12074.8C17877.6 12075.1 17875.3 12075.1 17872.4 12075.1C17850.4 12075.1 17843.2 12069.6 17843.2 12048.1V11943H17878.8V11918.4H17843.2V11873.6H17814V11918.4ZM18002 11918.4H17977.7V11943H18001.8V12047.8C18001.8 12083.1 18010.5 12099.5 18053.1 12099.5C18059.2 12099.5 18065.4 12098.9 18067.9 12098.3V12074.8C18065.5 12075.1 18063.3 12075.1 18060.4 12075.1C18038.4 12075.1 18031.2 12069.6 18031.2 12048.1V11943H18066.7V11918.4H18031.2V11873.6H18002V11918.4ZM18178.3 11915.5C18128.1 11915.5 18101.1 11951.9 18101.1 11999.9V12016C18101.1 12064.7 18127.9 12100.9 18178.3 12100.9C18228.8 12100.9 18255.2 12064.7 18255.2 12016V11999.9C18255.2 11951.9 18228.6 11915.5 18178.3 11915.5ZM18178.3 11940.6C18209.1 11940.6 18225.8 11964.2 18225.8 12000.9V12014.9C18225.8 12051.7 18209.1 12075.4 18178.3 12075.4C18147.4 12075.4 18130.5 12051.5 18130.5 12014.9V12000.9C18130.5 11964.2 18147.4 11940.6 18178.3 11940.6ZM18471.1 12075.6H18471.9V12098H18500.1V11974.1C18500.1 11936.3 18472.3 11915.5 18434 11915.5C18390.6 11915.5 18369.2 11938.4 18367.3 11969.8H18395C18396.7 11951.9 18409.9 11940.1 18433 11940.1C18457.2 11940.1 18470.9 11953.1 18470.9 11976.7V11994.9H18423.6C18382.4 11995.1 18360.5 12014.9 18360.5 12046.4C18360.5 12079.4 18384.4 12100.9 18419.1 12100.9C18445.6 12100.9 18462 12090.1 18471.1 12075.6ZM18427 12076.5C18408.2 12076.5 18390.6 12066.6 18390.6 12045.4C18390.6 12029.1 18401.2 12017.5 18425.8 12017.5H18470.9V12038.4C18470.9 12060.7 18452.1 12076.5 18427 12076.5ZM18615.5 11915.7C18570.2 11915.7 18543.7 11951.2 18543.7 12000.1V12016.3C18543.7 12066.4 18568.7 12100.7 18615.5 12100.7C18639.6 12100.7 18658.4 12089.5 18668.5 12071H18669.2V12098H18697.4V11852.4H18668V11943.3H18667.1C18658 11927.4 18639.2 11915.7 18615.5 11915.7ZM18619.6 11941.3C18649.8 11941.3 18668.5 11964.9 18668.5 12001.1V12015.5C18668.5 12053.6 18650.2 12075.1 18620.1 12075.1C18592.9 12075.1 18573.3 12055.3 18573.3 12015.3V12001.1C18573.3 11961.1 18592.9 11941.3 18619.6 11941.3ZM18814.8 11915.7C18769.5 11915.7 18743 11951.2 18743 12000.1V12016.3C18743 12066.4 18767.9 12100.7 18814.8 12100.7C18838.9 12100.7 18857.7 12089.5 18867.7 12071H18868.4V12098H18896.6V11852.4H18867.2V11943.3H18866.4C18857.3 11927.4 18838.5 11915.7 18814.8 11915.7ZM18818.9 11941.3C18849.1 11941.3 18867.7 11964.9 18867.7 12001.1V12015.5C18867.7 12053.6 18849.5 12075.1 18819.4 12075.1C18792.2 12075.1 18772.5 12055.3 18772.5 12015.3V12001.1C18772.5 11961.1 18792.2 11941.3 18818.9 11941.3ZM19156.4 11918.4H19125.1L19076.4 12065.4H19075.4L19026.8 11918.4H18994.2L19060.3 12100.6L19057.6 12110.3C19052.5 12129.3 19042.7 12136.3 19022.2 12136.3C19017.8 12136.3 19012.1 12135.9 19009.2 12135.6V12159.5C19014.2 12160.5 19020.4 12161.1 19025.8 12161.1C19056.1 12161.1 19073.7 12149.4 19087.7 12111.3L19092.3 12098.9C19092.5 12098.7 19154.7 11924.2 19156.4 11918.4ZM19253.3 11915.5C19203 11915.5 19176 11951.9 19176 11999.9V12016C19176 12064.7 19202.9 12100.9 19253.3 12100.9C19303.7 12100.9 19330.2 12064.7 19330.2 12016V11999.9C19330.2 11951.9 19303.5 11915.5 19253.3 11915.5ZM19253.3 11940.6C19284 11940.6 19300.8 11964.2 19300.8 12000.9V12014.9C19300.8 12051.7 19284 12075.4 19253.3 12075.4C19222.4 12075.4 19205.4 12051.5 19205.4 12014.9V12000.9C19205.4 11964.2 19222.4 11940.6 19253.3 11940.6ZM19518.9 11918.4H19489.3V12029.6C19489.3 12058.2 19471.2 12074.4 19445.4 12074.4C19421.8 12074.4 19402.5 12063.6 19402.5 12030.2V11918.4H19372.9V12038.5C19372.9 12079.7 19399.4 12100.9 19436.5 12100.9C19465.2 12100.9 19482.1 12088.6 19488.4 12074.4H19489.6V12098H19518.9V11918.4ZM19741.5 12075.6H19742.4V12098H19770.6V11974.1C19770.6 11936.3 19742.7 11915.5 19704.5 11915.5C19661 11915.5 19639.7 11938.4 19637.8 11969.8H19665.5C19667.2 11951.9 19680.4 11940.1 19703.4 11940.1C19727.7 11940.1 19741.4 11953.1 19741.4 11976.7V11994.9H19694C19652.8 11995.1 19631 12014.9 19631 12046.4C19631 12079.4 19654.9 12100.9 19689.6 12100.9C19716.1 12100.9 19732.5 12090.1 19741.5 12075.6ZM19697.5 12076.5C19678.7 12076.5 19661 12066.6 19661 12045.4C19661 12029.1 19671.6 12017.5 19696.3 12017.5H19741.4V12038.4C19741.4 12060.7 19722.6 12076.5 19697.5 12076.5ZM19814 11969.8C19814 12002.3 19841.5 12012.6 19875 12019.4C19900.1 12024.3 19920.1 12028.3 19920.1 12048.6C19920.1 12063.8 19907.7 12076.8 19880.1 12076.8C19856.2 12076.8 19842.2 12066 19839.6 12049.6H19810.9C19810.9 12081.9 19838.4 12100.9 19877.9 12100.9C19920.1 12100.9 19949 12080.7 19949 12045C19949 12010 19920.6 12000.9 19887 11994.9C19866.5 11991.2 19842.7 11986.9 19842.7 11966.8C19842.7 11949 19858.1 11939.6 19879.5 11939.6C19907.5 11939.6 19916 11955.6 19917.1 11969.3H19944.4C19944.4 11939.6 19922.7 11915.5 19880.5 11915.5C19846 11915.5 19814 11931.9 19814 11969.8ZM20161.3 12075.6H20162.1V12098H20190.3V11974.1C20190.3 11936.3 20162.5 11915.5 20124.2 11915.5C20080.8 11915.5 20059.4 11938.4 20057.5 11969.8H20085.2C20086.9 11951.9 20100.1 11940.1 20123.2 11940.1C20147.4 11940.1 20161.1 11953.1 20161.1 11976.7V11994.9H20113.8C20072.6 11995.1 20050.7 12014.9 20050.7 12046.4C20050.7 12079.4 20074.6 12100.9 20109.3 12100.9C20135.8 12100.9 20152.2 12090.1 20161.3 12075.6ZM20117.2 12076.5C20098.4 12076.5 20080.8 12066.6 20080.8 12045.4C20080.8 12029.1 20091.4 12017.5 20116 12017.5H20161.1V12038.4C20161.1 12060.7 20142.3 12076.5 20117.2 12076.5ZM16297.4 12498H16326.8V12343H16362V12318.4H16326.7V12302.8C16326.7 12281 16336 12274.6 16355.5 12274.6C16360 12274.6 16362.2 12275 16364.8 12275.3V12251.2C16361.7 12250.7 16357.6 12250.2 16351.6 12250.2C16314.7 12250.2 16297.4 12266.1 16297.4 12300.4V12318.4H16273.2V12343H16297.4V12498ZM16406.8 12498H16436.4V12386.7C16436.4 12362.5 16446.3 12342.7 16478.1 12342.7C16483.5 12342.7 16489.3 12342.8 16492.4 12343.3V12316.5C16488.8 12316 16485.1 12315.7 16481.3 12315.7C16455.8 12315.7 16442.3 12329.7 16437.1 12340.4H16436.2V12318.4H16406.8V12498ZM16529.5 12275.1C16529.5 12285.6 16537.9 12293.8 16548.3 12293.8C16558.7 12293.8 16567.3 12285.6 16567.3 12275.1C16567.3 12264.6 16558.7 12256.3 16548.3 12256.3C16537.9 12256.3 16529.5 12264.6 16529.5 12275.1ZM16533.6 12498H16563V12318.4H16533.6V12498ZM16685.5 12500.9C16725.2 12500.9 16748.9 12478.9 16755.8 12449.1H16726.6C16720.7 12465.9 16707.1 12476.3 16686.2 12476.3C16657 12476.3 16639.6 12452.9 16639.6 12418.7V12415.5H16758.2V12398.7C16758.2 12349.3 16731.2 12315.5 16684.2 12315.5C16637 12315.5 16610.2 12349.3 16610.2 12396.7V12416.8C16610.2 12467.9 16638.7 12500.9 16685.5 12500.9ZM16639.6 12391.7V12391.2C16639.6 12362.8 16657 12340.1 16684.3 12340.1C16711.2 12340.1 16728.8 12362.6 16728.8 12391.2V12391.7H16639.6ZM16802.6 12498H16832V12388.6C16832 12364 16845.3 12342.1 16876.3 12342.1C16902.4 12342.1 16920.2 12357.5 16920.2 12387.8V12498H16949.6V12382.8C16949.6 12339.1 16922.1 12315.5 16885.1 12315.5C16855.9 12315.5 16839.3 12330.7 16832.7 12342.1H16831.8V12318.4H16802.6V12498ZM17063.7 12315.7C17018.4 12315.7 16992 12351.2 16992 12400.1V12416.3C16992 12466.4 17016.9 12500.7 17063.7 12500.7C17087.8 12500.7 17106.6 12489.5 17116.7 12471H17117.4V12498H17145.6V12252.4H17116.2V12343.3H17115.3C17106.3 12327.4 17087.5 12315.7 17063.7 12315.7ZM17067.8 12341.3C17098.1 12341.3 17116.7 12364.9 17116.7 12401.1V12415.5C17116.7 12453.6 17098.4 12475.1 17068.3 12475.1C17041.2 12475.1 17021.5 12455.3 17021.5 12415.3V12401.1C17021.5 12361.1 17041.2 12341.3 17067.8 12341.3ZM17194 12481.6C17194 12492.4 17202.8 12501.2 17213.6 12501.2C17224.6 12501.2 17233.4 12492.4 17233.4 12481.6C17233.4 12470.7 17224.6 12461.8 17213.6 12461.8C17202.8 12461.8 17194 12470.7 17194 12481.6Z" fill="white"/>
</svg>
